<?xml version="1.0"?>
<svg width="400" height="400" xmlns="http://www.w3.org/2000/svg" xmlns:svg="http://www.w3.org/2000/svg" xmlns:xlink="http://www.w3.org/1999/xlink">
 <!-- Created with SVG-edit - https://github.com/SVG-Edit/svgedit-->
 <defs>
  <symbol height="278.86" id="svg_15" version="1.1" viewBox="0 0 138.30096109824444 139.43001089805875" width="276.6" xmlns="http://www.w3.org/2000/svg">
   <!-- svg-source:excalidraw -->
   <defs>
    <style class="style-fonts">@font-face {
        font-family: &quot;Virgil&quot;;
        src: url(&quot;https://excalidraw.com/Virgil.woff2&quot;);
      }
      @font-face {
        font-family: &quot;Cascadia&quot;;
        src: url(&quot;https://excalidraw.com/Cascadia.woff2&quot;);
      }</style>
   </defs>
   <g stroke-linecap="round" transform="translate(10 10) rotate(0 59.15048054912222 59.71500544902938)">
    <path d="m0,0l118.3,0l0,119.43l-118.3,0" fill="#000" stroke-width="0"/>
    <path d="m0,0c38.18,0 76.35,0 118.3,0m-118.3,0c40.55,0 81.1,0 118.3,0m0,0c0,41.61 0,83.22 0,119.43m0,-119.43c0,39.1 0,78.2 0,119.43m0,0c-39.6,0 -79.2,0 -118.3,0m118.3,0c-42.1,0 -84.21,0 -118.3,0m0,0c0,-25.57 0,-51.15 0,-119.43m0,119.43c0,-40.58 0,-81.15 0,-119.43" fill="none" stroke="#000000" stroke-width="4"/>
   </g>
   <g stroke-linecap="round" transform="translate(38.20778148737372 30.909091371124305) rotate(0 30.376239484801772 37.79276056384697)">
    <path d="m1.24,1.07c23.77,-1.1 44.19,-0.62 59.46,-0.92m-60.75,-0.88c21.61,1.57 42.74,1.19 59.82,0.8m2.08,-0.24c-1.47,20.02 -0.34,43.56 -3.04,76.05m2.15,-75.1c-0.1,22.84 -0.29,48.94 -0.86,74.26m-0.41,0.21c-11.99,-0.72 -27.98,0.23 -61.19,1.82m61.74,-1.73c-14.17,0.87 -28.9,0.13 -60.58,-0.67m-0.41,1.12c1.56,-22.58 0.57,-48.75 -0.28,-76.44m1.28,76.5c-0.37,-24.84 -0.16,-50.86 -0.02,-76.02" fill="none" stroke="#ffffff" stroke-width="4"/>
   </g>
   <g stroke-linecap="round" transform="translate(44.04632544168999 39.43018891305837) rotate(0 24.8532819261236 7.968831883761595)">
    <path d="m0,0c0,0 0,0 0,0m0,0c0,0 0,0 0,0m4.21,18.52c2.99,-3.88 10.15,-11.92 18.57,-19.97m-18.3,20.44c5.81,-7.2 12.43,-14.49 17.59,-19.37m2.65,19.44c5.07,-5.14 14.51,-13.13 17.24,-19.39m-16.52,19.43c5.4,-6.43 10.59,-11.1 17.5,-18.51" fill="none" stroke="#ffffff" stroke-width="2"/>
    <path d="m0.93,0.94c15.52,0.27 34.34,-2.6 47.08,0.47m-47.84,-1.79c18.61,-0.51 36.74,-0.36 49.6,0.32m-1.04,0.06c0.33,4.48 2.08,8.1 0.3,15.52m1.3,-15c-0.97,3.6 -1.32,7.31 -0.69,15.98m1.05,0.13c-18.84,0.49 -35.76,-1.8 -49.15,0.31m48.75,-1.4c-19.16,0.8 -36.96,-0.95 -50.52,-0.13m-0.65,-0.27c-0.12,-1.89 -0.43,-6.84 0.8,-16.65m-0.24,17.32c0.38,-3.8 0.24,-6.81 -0.03,-16.36" fill="none" stroke="#ffffff" stroke-width="4"/>
   </g>
   <g stroke-linecap="round" transform="translate(46.24899487455332 67.06567500392885) rotate(0 5.7144517078941135 5.786785421925742)">
    <path d="m2.86,0m0,0c1.48,-0.18 3.52,-0.32 5.71,0m-5.71,0c1.71,-0.01 3.11,-0.22 5.71,0m0,0c1.81,-1.99 3.55,1.45 2.86,2.86m-2.86,-2.86c1.63,-1.68 3.89,0.35 2.86,2.86m0,0c-0.37,1.23 0.41,2.99 0,5.86m0,-5.86c0.03,2 0.05,3.93 0,5.86m0,0c-0.71,2.55 -2.75,3.33 -2.86,2.85m2.86,-2.85c2.03,1.03 1.3,5.09 -2.86,2.85m0,0c-1.46,-0.55 -3.19,0.24 -5.71,0m5.71,0c-1.49,0.16 -3.22,-0.08 -5.71,0m0,0c-3.7,0.6 -3.9,-1.19 -2.86,-2.85m2.86,2.85c-3.58,0.81 -3.93,-1.91 -2.86,-2.85m0,0c0.09,-1.3 -0.51,-2.81 0,-5.86m0,5.86c0.22,-2.26 -0.2,-4.26 0,-5.86m0,0c-1.03,-0.11 0.76,-2.01 2.86,-2.86m-2.86,2.86c0.89,0.06 -1.29,-0.71 2.86,-2.86" fill="none" stroke="#ffffff" stroke-width="2"/>
   </g>
   <g stroke-linecap="round" transform="translate(62.59666258775178 66.99334680860738) rotate(0 5.7144517078941135 5.786785421925742)">
    <path d="m2.86,0m0,0c1.51,-0.34 2.17,0.54 5.71,0m-5.71,0c2.38,-0.18 4.46,-0.29 5.71,0m0,0c2.59,0.5 2.62,-0.51 2.86,2.86m-2.86,-2.86c2.93,-0.6 1.36,2.55 2.86,2.86m0,0c0.33,2 0.24,3.61 0,5.86m0,-5.86c0.04,1.07 -0.1,2.51 0,5.86m0,0c-1.8,2.38 0.81,2.09 -2.86,2.85m2.86,-2.85c2.25,4.14 -1.67,2.28 -2.86,2.85m0,0c-1.46,0.23 -2.85,0.12 -5.71,0m5.71,0c-2.37,-0.12 -4.77,0.11 -5.71,0m0,0c-2.95,-0.24 -4.31,-0.25 -2.86,-2.85m2.86,2.85c-2.98,-0.96 -3.93,1.29 -2.86,-2.85m0,0c-0.47,-1.31 0.34,-2.51 0,-5.86m0,5.86c-0.21,-1.66 -0.2,-2.97 0,-5.86m0,0c-0.2,-1.06 1.73,-1.15 2.86,-2.86m-2.86,2.86c-2.24,0.24 -1.26,-1.6 2.86,-2.86" fill="none" stroke="#ffffff" stroke-width="2"/>
   </g>
   <g stroke-linecap="round" transform="translate(79.5529136733312 67.10184462030338) rotate(0 5.7144517078941135 5.786785421925742)">
    <path d="m2.86,0m0,0c1.24,0.55 3.48,0.5 5.71,0m-5.71,0c1.79,-0.25 3.7,0.11 5.71,0m0,0c1.67,-1.46 3.75,0.43 2.86,2.86m-2.86,-2.86c0.41,1.6 2.91,-0.65 2.86,2.86m0,0c0.31,1.68 -0.51,3.26 0,5.86m0,-5.86c-0.1,1.79 -0.26,3.46 0,5.86m0,0c1.77,1.14 1,4.8 -2.86,2.85m2.86,-2.85c-0.72,1.32 -2.43,3.15 -2.86,2.85m0,0c-1.36,0.2 -1.85,0.16 -5.71,0m5.71,0c-2.18,0.06 -4,-0.06 -5.71,0m0,0c-3.36,0.71 -3.79,-1.79 -2.86,-2.85m2.86,2.85c-2.97,2.24 -4,-0.39 -2.86,-2.85m0,0c0.4,-1.52 -0.1,-3.39 0,-5.86m0,5.86c-0.12,-1.21 0,-2.81 0,-5.86m0,0c0.77,-0.2 -1,-0.99 2.86,-2.86m-2.86,2.86c-2.22,-0.65 2.07,-1.73 2.86,-2.86" fill="none" stroke="#ffffff" stroke-width="2"/>
   </g>
   <g stroke-linecap="round" transform="translate(45.56182459124466 84.87811284337477) rotate(0 5.7144517078941135 5.786785421925742)">
    <path d="m2.86,0m0,0c1.87,0.41 2.78,0.24 5.71,0m-5.71,0c1.47,0.13 2.72,-0.15 5.71,0m0,0c2.8,-0.52 1.56,2.34 2.86,2.86m-2.86,-2.86c1.95,-1.6 2.29,2.42 2.86,2.86m0,0c-0.52,2.03 -0.03,4.06 0,5.86m0,-5.86c-0.29,1.55 0.24,2.85 0,5.86m0,0c1.95,3.85 -1.58,2.35 -2.86,2.85m2.86,-2.85c-1.47,2.2 -3.03,2.38 -2.86,2.85m0,0c-1.45,0.15 -3.77,-0.21 -5.71,0m5.71,0c-1.58,-0.01 -3.07,0.12 -5.71,0m0,0c-2.84,-0.83 -3.79,1 -2.86,-2.85m2.86,2.85c-3.04,0.56 -2.1,-2.74 -2.86,-2.85m0,0c-0.18,-1.41 -0.33,-4.16 0,-5.86m0,5.86c0,-1.56 0.14,-3.11 0,-5.86m0,0c-1.95,-0.04 -0.98,-1.77 2.86,-2.86m-2.86,2.86c1.12,-0.78 -1.3,-4.56 2.86,-2.86" fill="none" stroke="#ffffff" stroke-width="2"/>
   </g>
   <g stroke-linecap="round" transform="translate(62.01173967860086 84.80578464805694) rotate(0 5.7144517078941135 5.786785421925742)">
    <path d="m2.86,0m0,0c2.32,0.25 4.12,-0.07 5.71,0m-5.71,0c1.11,-0.22 2.41,-0.09 5.71,0m0,0c0.6,1.39 2.9,-0.44 2.86,2.86m-2.86,-2.86c1.34,1.47 3.78,2.04 2.86,2.86m0,0c-0.12,1.91 -0.33,3.45 0,5.86m0,-5.86c0.21,1.84 0.23,4.18 0,5.86m0,0c-0.63,1.4 -2.23,3.11 -2.86,2.85m2.86,-2.85c-2.08,1.43 0.16,2.21 -2.86,2.85m0,0c-1.67,-0.21 -4.05,-0.5 -5.71,0m5.71,0c-2.09,0.1 -3.9,-0.12 -5.71,0m0,0c-2.83,1.95 -3.85,-0.46 -2.86,-2.85m2.86,2.85c-1.15,-1.79 -2.21,0.44 -2.86,-2.85m0,0c-0.28,-2.5 -0.06,-4.68 0,-5.86m0,5.86c0.12,-2.04 -0.28,-4.3 0,-5.86m0,0c-1.93,-0.81 1.93,-1.88 2.86,-2.86m-2.86,2.86c-2.25,-3.61 -0.04,-0.99 2.86,-2.86" fill="none" stroke="#ffffff" stroke-width="2"/>
   </g>
   <g stroke-linecap="round" transform="translate(78.86574339002618 84.91428245974748) rotate(0 5.7144517078941135 5.786785421925742)">
    <path d="m2.86,0m0,0c1.84,-0.06 3.79,0.17 5.71,0m-5.71,0c1.98,-0.03 3.53,0.24 5.71,0m0,0c1.95,-1.39 2.36,2.23 2.86,2.86m-2.86,-2.86c2.83,1.09 3.14,-1.21 2.86,2.86m0,0c-0.28,1.59 0.18,3.07 0,5.86m0,-5.86c0.34,2.18 -0.04,3.72 0,5.86m0,0c-1.28,2.16 -2.76,2.44 -2.86,2.85m2.86,-2.85c1.11,1.26 -0.28,5.03 -2.86,2.85m0,0c-2.12,-0.53 -3.51,-0.32 -5.71,0m5.71,0c-1.78,-0.1 -3.42,0.3 -5.71,0m0,0c-2.9,0.49 -2.2,-2.51 -2.86,-2.85m2.86,2.85c-1.26,1.39 -1.17,-1.5 -2.86,-2.85m0,0c-0.05,-2.58 0.55,-4.62 0,-5.86m0,5.86c-0.31,-1.74 -0.31,-3.86 0,-5.86m0,0c0.97,-0.92 -1.01,-4.34 2.86,-2.86m-2.86,2.86c-1,-0.03 -1.19,-4.28 2.86,-2.86" fill="none" stroke="#ffffff" stroke-width="2"/>
   </g>
  </symbol>
 </defs>
 <g class="layer">
  <title>Layer 1</title>
  <use id="svg_16" transform="matrix(1.63508 0 0 1.63508 -8.78033 -8.09899)" x="-10.46" xlink:href="#svg_15" y="-11.5"/>
 </g>
</svg>