<svg version="1.1" xmlns="http://www.w3.org/2000/svg" viewBox="0 0 138.30096109824444 139.43001089805875" width="276.6019221964889" height="278.8600217961175">
  <!-- svg-source:excalidraw -->
  
  <defs>
    <style class="style-fonts">
      @font-face {
        font-family: "Virgil";
        src: url("https://excalidraw.com/Virgil.woff2");
      }
      @font-face {
        font-family: "Cascadia";
        src: url("https://excalidraw.com/Cascadia.woff2");
      }
    </style>
    
  </defs>
  <g stroke-linecap="round" transform="translate(10 10) rotate(0 59.15048054912222 59.71500544902938)"><path d="M0 0 L118.3 0 L118.3 119.43 L0 119.43" stroke="none" stroke-width="0" fill="#000"></path><path d="M0 0 C26.06 0, 52.13 0, 118.3 0 M0 0 C33.18 0, 66.35 0, 118.3 0 M118.3 0 C118.3 45.16, 118.3 90.31, 118.3 119.43 M118.3 0 C118.3 34.09, 118.3 68.19, 118.3 119.43 M118.3 119.43 C90.97 119.43, 63.64 119.43, 0 119.43 M118.3 119.43 C76.36 119.43, 34.43 119.43, 0 119.43 M0 119.43 C0 77.91, 0 36.4, 0 0 M0 119.43 C0 89.91, 0 60.39, 0 0" stroke="#000000" stroke-width="4" fill="none"></path></g><g stroke-linecap="round" transform="translate(41.685178442992765 55.09562696154535) rotate(0 28.44450199657149 22.5042842046214)"><path d="M11.25 0 M11.25 0 C24.37 3.56, 35.75 -0.31, 45.64 0 M11.25 0 C22.12 -1.2, 30.43 -1.12, 45.64 0 M45.64 0 C49.21 -1.58, 58 7.51, 56.89 11.25 M45.64 0 C55.84 4.57, 54.42 1.56, 56.89 11.25 M56.89 11.25 C55.94 20.69, 57.79 23.79, 56.89 33.76 M56.89 11.25 C58.27 16.65, 57.51 21.53, 56.89 33.76 M56.89 33.76 C58.38 44.15, 51.16 46.9, 45.64 45.01 M56.89 33.76 C53.23 39.11, 54.82 43.67, 45.64 45.01 M45.64 45.01 C36.12 45.88, 33.98 46.04, 11.25 45.01 M45.64 45.01 C31.03 43.11, 19.17 45.59, 11.25 45.01 M11.25 45.01 C4.58 46.09, 0.9 38.69, 0 33.76 M11.25 45.01 C0.64 47.26, -1.15 36.87, 0 33.76 M0 33.76 C-1.11 26.58, 2.58 17.67, 0 11.25 M0 33.76 C-1.26 29.14, 0.81 23.73, 0 11.25 M0 11.25 C-1.88 6.73, 2.67 3.38, 11.25 0 M0 11.25 C-3.73 2.42, 5.9 3.79, 11.25 0" stroke="#ffffff" stroke-width="4" fill="none"></path></g><g stroke-linecap="round"><g transform="translate(58.31582512267414 54.229541855343996) rotate(0 12.901934850271573 -8.837827923927762)"><path d="M0.09 -0.75 C0.52 -3.41, -1.43 -12.98, 2.47 -15.65 C6.37 -18.31, 19.47 -19.31, 23.49 -16.76 C27.51 -14.2, 26 -3.47, 26.59 -0.34 M-1.33 1.48 C-0.53 -1.59, 0.65 -14.68, 4.6 -17.59 C8.55 -20.51, 18.62 -18.96, 22.38 -16 C26.13 -13.05, 26.52 -2.43, 27.13 0.14" stroke="#ffffff" stroke-width="4" fill="none"></path></g></g><mask></mask><g stroke-linecap="round" transform="translate(63.62362369595576 68.02315596652079) rotate(0 5.665945980059405 5.222526833720622)"><path d="M6.38 0.53 C7.33 0.95, 9.05 1.8, 9.87 2.79 C10.69 3.79, 11.33 5.54, 11.28 6.51 C11.23 7.49, 10.34 7.94, 9.57 8.66 C8.81 9.37, 7.8 10.64, 6.7 10.8 C5.59 10.95, 3.91 10.41, 2.96 9.6 C2.01 8.78, 1.39 7.11, 1 5.92 C0.62 4.73, 0.29 3.46, 0.65 2.43 C1.01 1.4, 1.91 0.17, 3.18 -0.27 C4.46 -0.72, 7.43 -0.46, 8.31 -0.23 C9.18 0, 8.66 0.98, 8.45 1.12 M8.07 -0.64 C9.22 -0.39, 10.28 2.13, 10.64 3.39 C11.01 4.65, 10.39 5.98, 10.26 6.91 C10.13 7.84, 10.89 8.44, 9.85 8.98 C8.81 9.51, 5.53 10.01, 4.04 10.1 C2.55 10.19, 1.6 10.12, 0.89 9.52 C0.17 8.92, -0.22 7.66, -0.27 6.51 C-0.32 5.36, -0.03 3.86, 0.59 2.65 C1.2 1.43, 2.44 -0.18, 3.43 -0.8 C4.42 -1.41, 5.95 -1.42, 6.52 -1.03 C7.1 -0.64, 6.77 1.37, 6.9 1.54" stroke="none" stroke-width="0" fill="#ffffff"></path><path d="M4.14 -0.35 C5.28 -0.77, 7.14 0.46, 8.11 1.09 C9.07 1.72, 9.24 2.74, 9.93 3.43 C10.61 4.11, 12.15 4.27, 12.2 5.18 C12.25 6.1, 11.28 8.16, 10.23 8.93 C9.18 9.71, 7.28 9.8, 5.9 9.83 C4.52 9.87, 2.78 9.74, 1.96 9.12 C1.14 8.51, 1.1 7.18, 0.99 6.14 C0.87 5.1, 0.67 3.74, 1.26 2.88 C1.84 2.01, 4.11 1.4, 4.5 0.94 C4.9 0.48, 3.71 0.13, 3.61 0.14 M9.29 -0.36 C10.7 -0.2, 11.53 1.08, 11.62 2.1 C11.7 3.12, 10.45 4.3, 9.82 5.76 C9.19 7.23, 8.72 10.18, 7.83 10.9 C6.94 11.62, 5.25 10.33, 4.46 10.1 C3.67 9.88, 3.57 10.18, 3.08 9.53 C2.59 8.87, 1.8 7.4, 1.51 6.16 C1.23 4.91, 0.89 3.3, 1.38 2.08 C1.88 0.86, 3.36 -0.69, 4.47 -1.16 C5.58 -1.63, 7.37 -0.87, 8.04 -0.72 C8.72 -0.58, 8.51 -0.75, 8.49 -0.28" stroke="#fff" stroke-width="2" fill="none"></path></g><g stroke-linecap="round"><g transform="translate(69.93005856892705 75.2164441679106) rotate(0 -0.1437267623077787 6.613882327216743)"><path d="M-0.91 -0.66 C-1.18 1.27, -1.39 10.38, -1.17 12.37 M0.81 1.61 C0.86 3.67, 1.08 12.14, 0.92 13.88" stroke="#fff" stroke-width="2" fill="none"></path></g></g><mask></mask><g stroke-linecap="round"><g transform="translate(71.21105890837134 76.20182673121417) rotate(0 0.5354015909961163 7.3840102302638115)"><path d="M1.02 0.79 C1.04 3.36, 0.86 12.44, 0.8 14.6 M0.09 0.17 C-0.05 2.43, 0.2 10.2, 0.22 12.64" stroke="#fff" stroke-width="2" fill="none"></path></g></g><mask></mask><g stroke-linecap="round"><g transform="translate(68.45198472397169 76.69451801286777) rotate(0 0.7403878579643788 6.291940471110138)"><path d="M0.37 -1.12 C0.34 1.35, 0.13 11.52, 0.09 13.71 M-0.9 0.9 C-0.57 3.16, 1.8 10.14, 2.38 12.16" stroke="#fff" stroke-width="2" fill="none"></path></g></g><mask></mask></svg>