<?xml version="1.0"?>
<svg width="400" height="400" xmlns="http://www.w3.org/2000/svg" xmlns:svg="http://www.w3.org/2000/svg" xmlns:xlink="http://www.w3.org/1999/xlink">
 <!-- Created with SVG-edit - https://github.com/SVG-Edit/svgedit-->
 <defs>
  <symbol height="278.86" id="svg_17" version="1.1" viewBox="0 0 138.30096109824444 139.43001089805875" width="276.6" xmlns="http://www.w3.org/2000/svg">
   <!-- svg-source:excalidraw -->
   <defs>
    <style class="style-fonts">@font-face {
        font-family: &quot;Virgil&quot;;
        src: url(&quot;https://excalidraw.com/Virgil.woff2&quot;);
      }
      @font-face {
        font-family: &quot;Cascadia&quot;;
        src: url(&quot;https://excalidraw.com/Cascadia.woff2&quot;);
      }</style>
   </defs>
   <g stroke-linecap="round" transform="translate(10 10) rotate(0 59.15048054912222 59.71500544902938)">
    <path d="m0,0l118.3,0l0,119.43l-118.3,0" fill="#000" stroke-width="0"/>
    <path d="m0,0c26.06,0 52.13,0 118.3,0m-118.3,0c33.18,0 66.35,0 118.3,0m0,0c0,45.16 0,90.31 0,119.43m0,-119.43c0,34.09 0,68.19 0,119.43m0,0c-27.33,0 -54.66,0 -118.3,0m118.3,0c-41.94,0 -83.87,0 -118.3,0m0,0c0,-41.52 0,-83.03 0,-119.43m0,119.43c0,-29.52 0,-59.04 0,-119.43" fill="none" stroke="#000000" stroke-width="4"/>
   </g>
   <g stroke-linecap="round" transform="translate(41.685178442992765 55.09562696154535) rotate(0 28.44450199657149 22.5042842046214)">
    <path d="m11.25,0m0,0c13.12,3.56 24.5,-0.31 34.39,0m-34.39,0c10.87,-1.2 19.18,-1.12 34.39,0m0,0c3.57,-1.58 12.36,7.51 11.25,11.25m-11.25,-11.25c10.2,4.57 8.78,1.56 11.25,11.25m0,0c-0.95,9.44 0.9,12.54 0,22.51m0,-22.51c1.38,5.4 0.62,10.28 0,22.51m0,0c1.49,10.39 -5.73,13.14 -11.25,11.25m11.25,-11.25c-3.66,5.35 -2.07,9.91 -11.25,11.25m0,0c-9.52,0.87 -11.66,1.03 -34.39,0m34.39,0c-14.61,-1.9 -26.47,0.58 -34.39,0m0,0c-6.67,1.08 -10.35,-6.32 -11.25,-11.25m11.25,11.25c-10.61,2.25 -12.4,-8.14 -11.25,-11.25m0,0c-1.11,-7.18 2.58,-16.09 0,-22.51m0,22.51c-1.26,-4.62 0.81,-10.03 0,-22.51m0,0c-1.88,-4.52 2.67,-7.87 11.25,-11.25m-11.25,11.25c-3.73,-8.83 5.9,-7.46 11.25,-11.25" fill="none" stroke="#ffffff" stroke-width="4"/>
   </g>
   <g stroke-linecap="round">
    <g transform="translate(58.31582512267414 54.229541855343996) rotate(0 12.901934850271573 -8.837827923927762)">
     <path d="m0.09,-0.75c0.43,-2.66 -1.52,-12.23 2.38,-14.9c3.9,-2.66 17,-3.66 21.02,-1.11c4.02,2.56 2.51,13.29 3.1,16.42m-27.92,1.82c0.8,-3.07 1.98,-16.16 5.93,-19.07c3.95,-2.92 14.02,-1.37 17.78,1.59c3.75,2.95 4.14,13.57 4.75,16.14" fill="none" stroke="#ffffff" stroke-width="4"/>
    </g>
   </g>
   <mask/>
   <g stroke-linecap="round" transform="translate(63.62362369595576 68.02315596652079) rotate(0 5.665945980059405 5.222526833720622)">
    <path d="m6.38,0.53c0.95,0.42 2.67,1.27 3.49,2.26c0.82,1 1.46,2.75 1.41,3.72c-0.05,0.98 -0.94,1.43 -1.71,2.15c-0.76,0.71 -1.77,1.98 -2.87,2.14c-1.11,0.15 -2.79,-0.39 -3.74,-1.2c-0.95,-0.82 -1.57,-2.49 -1.96,-3.68c-0.38,-1.19 -0.71,-2.46 -0.35,-3.49c0.36,-1.03 1.26,-2.26 2.53,-2.7c1.28,-0.45 4.25,-0.19 5.13,0.04c0.87,0.23 0.35,1.21 0.14,1.35m-0.38,-1.76c1.15,0.25 2.21,2.77 2.57,4.03c0.37,1.26 -0.25,2.59 -0.38,3.52c-0.13,0.93 0.63,1.53 -0.41,2.07c-1.04,0.53 -4.32,1.03 -5.81,1.12c-1.49,0.09 -2.44,0.02 -3.15,-0.58c-0.72,-0.6 -1.11,-1.86 -1.16,-3.01c-0.05,-1.15 0.24,-2.65 0.86,-3.86c0.61,-1.22 1.85,-2.83 2.84,-3.45c0.99,-0.61 2.52,-0.62 3.09,-0.23c0.58,0.39 0.25,2.4 0.38,2.57" fill="#ffffff" stroke-width="0"/>
    <path d="m4.14,-0.35c1.14,-0.42 3,0.81 3.97,1.44c0.96,0.63 1.13,1.65 1.82,2.34c0.68,0.68 2.22,0.84 2.27,1.75c0.05,0.92 -0.92,2.98 -1.97,3.75c-1.05,0.78 -2.95,0.87 -4.33,0.9c-1.38,0.04 -3.12,-0.09 -3.94,-0.71c-0.82,-0.61 -0.86,-1.94 -0.97,-2.98c-0.12,-1.04 -0.32,-2.4 0.27,-3.26c0.58,-0.87 2.85,-1.48 3.24,-1.94c0.4,-0.46 -0.79,-0.81 -0.89,-0.8m5.68,-0.5c1.41,0.16 2.24,1.44 2.33,2.46c0.08,1.02 -1.17,2.2 -1.8,3.66c-0.63,1.47 -1.1,4.42 -1.99,5.14c-0.89,0.72 -2.58,-0.57 -3.37,-0.8c-0.79,-0.22 -0.89,0.08 -1.38,-0.57c-0.49,-0.66 -1.28,-2.13 -1.57,-3.37c-0.28,-1.25 -0.62,-2.86 -0.13,-4.08c0.5,-1.22 1.98,-2.77 3.09,-3.24c1.11,-0.47 2.9,0.29 3.57,0.44c0.68,0.14 0.47,-0.03 0.45,0.44" fill="none" stroke="#fff" stroke-width="2"/>
   </g>
   <g stroke-linecap="round">
    <g transform="translate(69.93005856892705 75.2164441679106) rotate(0 -0.1437267623077787 6.613882327216743)">
     <path d="m-0.91,-0.66c-0.27,1.93 -0.48,11.04 -0.26,13.03m1.98,-10.76c0.05,2.06 0.27,10.53 0.11,12.27" fill="none" stroke="#fff" stroke-width="2"/>
    </g>
   </g>
   <mask/>
   <g stroke-linecap="round">
    <g transform="translate(71.21105890837134 76.20182673121417) rotate(0 0.5354015909961163 7.3840102302638115)">
     <path d="m1.02,0.79c0.02,2.57 -0.16,11.65 -0.22,13.81m-0.71,-14.43c-0.14,2.26 0.11,10.03 0.13,12.47" fill="none" stroke="#fff" stroke-width="2"/>
    </g>
   </g>
   <mask/>
   <g stroke-linecap="round">
    <g transform="translate(68.45198472397169 76.69451801286777) rotate(0 0.7403878579643788 6.291940471110138)">
     <path d="m0.37,-1.12c-0.03,2.47 -0.24,12.64 -0.28,14.83m-0.99,-12.81c0.33,2.26 2.7,9.24 3.28,11.26" fill="none" stroke="#fff" stroke-width="2"/>
    </g>
   </g>
   <mask/>
  </symbol>
 </defs>
 <g class="layer">
  <title>Layer 1</title>
  <use id="svg_18" transform="matrix(1 0 0 1 0 0) matrix(1 0 0 1 0 0) matrix(1 0 0 1 0 0) matrix(0.956274 0 0 0.956274 0 0)" x="0" xlink:href="#svg_17" y="0"/>
  <use id="svg_19" transform="matrix(1.63938 0 0 1.63938 -27.9737 -28.1162)" x="0" xlink:href="#svg_17" y="0"/>
 </g>
</svg>