<svg version="1.1" xmlns="http://www.w3.org/2000/svg" viewBox="0 0 138.30096109824444 139.43001089805875" width="276.6019221964889" height="278.8600217961175">
  <!-- svg-source:excalidraw -->
  
  <defs>
    <style class="style-fonts">
      @font-face {
        font-family: "Virgil";
        src: url("https://excalidraw.com/Virgil.woff2");
      }
      @font-face {
        font-family: "Cascadia";
        src: url("https://excalidraw.com/Cascadia.woff2");
      }
    </style>
    
  </defs>
  <g stroke-linecap="round" transform="translate(10 10) rotate(0 59.15048054912222 59.71500544902938)"><path d="M0 0 L118.3 0 L118.3 119.43 L0 119.43" stroke="none" stroke-width="0" fill="#000"></path><path d="M0 0 C39.11 0, 78.21 0, 118.3 0 M0 0 C44.2 0, 88.39 0, 118.3 0 M118.3 0 C118.3 39.83, 118.3 79.67, 118.3 119.43 M118.3 0 C118.3 37.05, 118.3 74.1, 118.3 119.43 M118.3 119.43 C71.49 119.43, 24.67 119.43, 0 119.43 M118.3 119.43 C78.1 119.43, 37.9 119.43, 0 119.43 M0 119.43 C0 91.74, 0 64.06, 0 0 M0 119.43 C0 82.6, 0 45.78, 0 0" stroke="#000000" stroke-width="4" fill="none"></path></g><g stroke-linecap="round"><g transform="translate(31.44077612867477 100.8543090176554) rotate(0 37.85014842621058 -24.622386291573093)" fill-rule="evenodd"><path d="M0.45 -1.68 L77.24 2.14 L60.57 -22.49 L41.52 -13.9 L15.04 -50.74 L-4.46 -1.77" stroke="none" stroke-width="0" fill="#ffffff" fill-rule="evenodd"></path><path d="M0.06 0.61 C27.67 -1.69, 55.32 -0.63, 78.24 1.75 M-0.91 0.86 C22.82 0.21, 43.38 0.45, 78.45 1.44 M77.91 1.34 C72.4 -8.14, 66.09 -18.23, 61.44 -23.44 M78.46 1.01 C72.64 -9.46, 65.1 -18.96, 61.81 -24.33 M59.45 -22.51 C56.23 -22.03, 52.51 -20.38, 39.11 -13.78 M60.63 -24.38 C53.78 -18.55, 45.66 -14.62, 39.49 -11.54 M40.3 -14.09 C30.76 -24.15, 24.37 -33.66, 13.03 -48.85 M39.18 -11.24 C34.38 -21.82, 26.8 -28.95, 13.73 -51 M12.41 -49.91 C10.43 -38.82, 7.54 -30.96, -0.82 -1.59 M14.14 -50.75 C8.35 -35.36, 4.11 -22.32, -2.76 -3.46 M-2.39 -3.18 C-2.29 -1.86, -1.19 -1.65, 0.21 -0.27 M-2.54 -3.07 C-1.82 -2.17, -1.07 -1.36, -0.19 0.06" stroke="#fff" stroke-width="4" fill="none"></path></g></g><mask></mask><g stroke-linecap="round" transform="translate(78.06046604969379 35.12342237712983) rotate(0 9.700366764036517 8.107770719399014)"><path d="M10.75 -0.1 C12.76 -0.2, 15.19 0.19, 16.54 1.34 C17.9 2.48, 18.84 4.88, 18.89 6.78 C18.94 8.68, 17.98 11.17, 16.84 12.73 C15.7 14.28, 13.86 15.49, 12.06 16.09 C10.26 16.7, 7.81 17, 6.04 16.35 C4.26 15.69, 2.41 13.83, 1.42 12.18 C0.43 10.53, -0.46 8.26, 0.09 6.42 C0.64 4.58, 2.67 2.25, 4.69 1.15 C6.71 0.05, 10.63 -0.24, 12.23 -0.19 C13.83 -0.14, 14.23 1.16, 14.29 1.45 M6.48 -1.12 C8.51 -1.52, 11.64 0.33, 13.9 1.4 C16.16 2.46, 19.02 3.84, 20.04 5.27 C21.06 6.71, 20.74 8.24, 20.02 10.01 C19.29 11.78, 17.42 14.98, 15.71 15.89 C14 16.8, 11.86 15.89, 9.76 15.46 C7.66 15.03, 4.81 14.62, 3.1 13.31 C1.39 12, -0.44 9.44, -0.5 7.6 C-0.55 5.76, 1.5 3.67, 2.77 2.29 C4.04 0.9, 6.32 -0.41, 7.12 -0.7 C7.92 -0.99, 7.43 0.5, 7.57 0.55" stroke="none" stroke-width="0" fill="#ffffff"></path><path d="M13.41 1.13 C15.25 1.85, 17.52 3.24, 18.35 4.97 C19.17 6.69, 18.92 9.71, 18.35 11.49 C17.79 13.26, 16.45 14.81, 14.96 15.6 C13.47 16.38, 11.35 16.45, 9.38 16.2 C7.42 15.96, 4.85 15.44, 3.15 14.13 C1.46 12.83, -0.62 10.32, -0.77 8.39 C-0.92 6.46, 0.7 4.01, 2.24 2.55 C3.78 1.1, 6.46 -0.29, 8.47 -0.36 C10.47 -0.44, 13.05 1.94, 14.27 2.1 C15.49 2.26, 15.8 0.62, 15.79 0.6 M4.92 0.73 C6.68 -0.52, 9.92 -1.78, 11.94 -1.17 C13.96 -0.56, 16.07 3.01, 17.07 4.37 C18.06 5.72, 17.95 5.47, 17.91 6.94 C17.88 8.41, 17.76 11.48, 16.85 13.19 C15.94 14.9, 14.7 16.99, 12.44 17.21 C10.18 17.43, 5.06 15.57, 3.29 14.5 C1.52 13.44, 2.16 12.45, 1.81 10.83 C1.45 9.2, 0.73 6.39, 1.14 4.76 C1.56 3.12, 3.81 1.48, 4.32 1.02 C4.83 0.55, 4.08 1.65, 4.21 1.98" stroke="#fff" stroke-width="4" fill="none"></path></g></svg>