<svg version="1.1" xmlns="http://www.w3.org/2000/svg" viewBox="0 0 138.30096109824444 139.43001089805875" width="276.6019221964889" height="278.8600217961175">
  <!-- svg-source:excalidraw -->
  
  <defs>
    <style class="style-fonts">
      @font-face {
        font-family: "Virgil";
        src: url("https://excalidraw.com/Virgil.woff2");
      }
      @font-face {
        font-family: "Cascadia";
        src: url("https://excalidraw.com/Cascadia.woff2");
      }
    </style>
    
  </defs>
  <g stroke-linecap="round" transform="translate(10 10) rotate(0 59.15048054912222 59.71500544902938)"><path d="M0 0 L118.3 0 L118.3 119.43 L0 119.43" stroke="none" stroke-width="0" fill="#000"></path><path d="M0 0 C44.07 0, 88.15 0, 118.3 0 M0 0 C25.09 0, 50.17 0, 118.3 0 M118.3 0 C118.3 31.4, 118.3 62.8, 118.3 119.43 M118.3 0 C118.3 38.9, 118.3 77.8, 118.3 119.43 M118.3 119.43 C81.89 119.43, 45.47 119.43, 0 119.43 M118.3 119.43 C76.02 119.43, 33.74 119.43, 0 119.43 M0 119.43 C0 80.74, 0 42.05, 0 0 M0 119.43 C0 77.72, 0 36.01, 0 0" stroke="#000000" stroke-width="4" fill="none"></path></g><g transform="translate(37.10453530388986 65.47676118681557) rotate(11.256360323642275 30.72025254304208 -11.60857200593091)" stroke="none"><path fill="#fff" d="M -2.40,-1.10 Q -2.40,-1.10 -1.92,-2.17 -1.45,-3.23 -0.66,-4.84 0.12,-6.44 1.07,-7.86 2.02,-9.28 2.92,-10.12 3.82,-10.96 4.75,-11.68 5.69,-12.40 7.31,-13.64 8.94,-14.87 10.78,-16.08 12.63,-17.28 13.75,-17.88 14.87,-18.47 15.87,-19.02 16.87,-19.58 18.00,-20.15 19.12,-20.72 20.21,-21.23 21.29,-21.75 23.16,-22.61 25.03,-23.48 26.08,-23.88 27.13,-24.27 28.57,-24.68 30.01,-25.08 31.85,-25.31 33.69,-25.54 35.83,-25.52 37.97,-25.50 40.24,-25.40 42.52,-25.30 44.87,-25.21 47.21,-25.12 49.42,-24.88 51.62,-24.64 53.39,-24.43 55.17,-24.22 56.56,-24.11 57.95,-24.00 59.84,-23.49 61.73,-22.99 62.02,-22.84 62.31,-22.69 62.54,-22.45 62.77,-22.21 62.91,-21.91 63.05,-21.61 63.08,-21.29 63.12,-20.96 63.05,-20.64 62.98,-20.32 62.81,-20.04 62.64,-19.75 62.40,-19.54 62.15,-19.32 61.84,-19.20 61.54,-19.08 61.21,-19.06 60.88,-19.04 60.56,-19.13 60.24,-19.21 59.97,-19.40 59.70,-19.58 59.50,-19.84 59.30,-20.10 59.19,-20.41 59.08,-20.72 59.08,-21.05 59.08,-21.38 59.19,-21.69 59.29,-22.01 59.49,-22.27 59.68,-22.53 59.96,-22.72 60.23,-22.90 60.54,-22.99 60.86,-23.08 61.19,-23.07 61.52,-23.05 61.82,-22.93 62.13,-22.81 62.38,-22.60 62.63,-22.38 62.80,-22.10 62.97,-21.82 63.05,-21.50 63.12,-21.18 63.08,-20.85 63.05,-20.53 62.91,-20.23 62.78,-19.93 62.55,-19.69 62.33,-19.45 62.04,-19.29 61.75,-19.14 61.42,-19.08 61.10,-19.03 60.77,-19.08 60.45,-19.13 60.45,-19.13 60.45,-19.13 58.95,-19.63 57.44,-20.12 56.07,-20.37 54.69,-20.62 53.03,-20.86 51.36,-21.11 49.30,-21.18 47.24,-21.25 44.93,-21.12 42.61,-20.99 40.42,-20.79 38.24,-20.60 36.39,-20.36 34.54,-20.13 33.12,-19.84 31.70,-19.56 30.46,-19.14 29.23,-18.72 28.19,-18.32 27.15,-17.93 25.47,-17.19 23.79,-16.45 22.81,-15.99 21.84,-15.53 20.80,-14.97 19.76,-14.41 18.73,-13.83 17.71,-13.25 16.74,-12.71 15.77,-12.17 14.09,-11.09 12.42,-10.00 10.85,-8.86 9.29,-7.71 7.98,-6.72 6.67,-5.73 5.80,-4.62 4.92,-3.50 4.16,-2.24 3.40,-0.99 2.90,0.05 2.40,1.10 2.23,1.37 2.06,1.64 1.83,1.87 1.61,2.09 1.33,2.25 1.06,2.42 0.75,2.51 0.45,2.60 0.13,2.62 -0.18,2.63 -0.49,2.57 -0.81,2.51 -1.09,2.38 -1.38,2.24 -1.63,2.05 -1.88,1.85 -2.08,1.59 -2.27,1.34 -2.40,1.05 -2.53,0.76 -2.58,0.44 -2.63,0.13 -2.61,-0.18 -2.59,-0.50 -2.49,-0.80 -2.39,-1.10 -2.40,-1.10 L -2.40,-1.10 Z"></path></g><g transform="translate(47.95644555934632 74.8211626131233) rotate(11.256360323642275 21.518343085215747 -8.210937750289304)" stroke="none"><path fill="#fff" d="M -2.22,-1.48 Q -2.22,-1.48 -1.58,-2.46 -0.94,-3.45 -0.08,-4.80 0.77,-6.15 1.53,-7.24 2.28,-8.33 3.31,-9.26 4.34,-10.19 5.36,-11.00 6.38,-11.81 7.43,-12.62 8.49,-13.43 10.03,-14.21 11.57,-14.98 12.80,-15.67 14.02,-16.35 15.27,-16.88 16.52,-17.42 17.81,-17.74 19.10,-18.06 20.53,-18.32 21.96,-18.57 23.24,-18.89 24.52,-19.20 25.64,-19.30 26.75,-19.39 28.44,-19.54 30.13,-19.69 31.73,-19.72 33.33,-19.76 35.09,-19.75 36.85,-19.75 40.43,-19.12 44.00,-18.49 44.47,-18.23 44.95,-17.96 45.31,-17.56 45.67,-17.16 45.89,-16.66 46.11,-16.17 46.15,-15.63 46.20,-15.09 46.07,-14.56 45.94,-14.04 45.65,-13.58 45.36,-13.12 44.94,-12.78 44.52,-12.44 44.02,-12.25 43.51,-12.06 42.97,-12.05 42.43,-12.03 41.91,-12.19 41.39,-12.34 40.95,-12.66 40.51,-12.97 40.19,-13.41 39.88,-13.85 39.71,-14.36 39.55,-14.88 39.57,-15.42 39.58,-15.96 39.76,-16.47 39.95,-16.98 40.28,-17.40 40.62,-17.82 41.07,-18.12 41.53,-18.41 42.05,-18.54 42.58,-18.68 43.12,-18.64 43.66,-18.59 44.15,-18.38 44.65,-18.17 45.06,-17.81 45.46,-17.45 45.73,-16.98 46.00,-16.51 46.10,-15.98 46.21,-15.45 46.14,-14.91 46.07,-14.38 45.83,-13.89 45.59,-13.41 45.21,-13.02 44.83,-12.64 44.34,-12.40 43.86,-12.15 43.32,-12.08 42.79,-12.00 42.26,-12.10 41.73,-12.20 41.73,-12.20 41.73,-12.20 39.29,-12.64 36.86,-13.08 35.13,-13.07 33.40,-13.05 31.98,-13.03 30.56,-13.00 28.92,-12.84 27.27,-12.67 25.94,-12.48 24.60,-12.29 23.21,-12.05 21.82,-11.81 20.40,-11.54 18.98,-11.26 17.91,-10.85 16.85,-10.44 15.52,-9.75 14.19,-9.05 13.18,-8.63 12.17,-8.21 11.15,-7.50 10.14,-6.80 8.72,-5.82 7.31,-4.85 6.38,-3.90 5.44,-2.94 4.49,-1.70 3.54,-0.45 2.88,0.51 2.22,1.48 2.01,1.72 1.80,1.97 1.54,2.15 1.27,2.34 0.98,2.46 0.68,2.58 0.36,2.62 0.04,2.67 -0.27,2.63 -0.59,2.60 -0.90,2.49 -1.20,2.38 -1.47,2.20 -1.73,2.02 -1.95,1.79 -2.17,1.55 -2.32,1.26 -2.48,0.98 -2.56,0.67 -2.64,0.36 -2.65,0.04 -2.65,-0.27 -2.58,-0.59 -2.51,-0.90 -2.36,-1.19 -2.22,-1.48 -2.22,-1.48 L -2.22,-1.48 Z"></path></g><g transform="translate(57.77677343354662 84.88130422136237) rotate(11.256360323642275 14.015234554035487 -4.530171807002262)" stroke="none"><path fill="#fff" d="M -1.86,-1.86 Q -1.86,-1.86 -1.06,-2.69 -0.26,-3.52 0.69,-4.46 1.64,-5.41 3.03,-6.53 4.42,-7.64 5.49,-8.34 6.56,-9.05 8.28,-9.88 10.01,-10.71 11.48,-11.14 12.95,-11.57 14.24,-11.78 15.54,-12.00 16.60,-12.17 17.66,-12.34 18.78,-12.39 19.91,-12.44 21.60,-12.47 23.30,-12.49 25.63,-12.36 27.97,-12.23 28.52,-12.13 29.07,-12.02 29.55,-11.75 30.04,-11.47 30.41,-11.06 30.79,-10.64 31.01,-10.13 31.23,-9.61 31.28,-9.06 31.32,-8.50 31.19,-7.96 31.05,-7.41 30.75,-6.94 30.45,-6.47 30.02,-6.12 29.58,-5.77 29.06,-5.57 28.53,-5.38 27.97,-5.36 27.41,-5.35 26.88,-5.51 26.34,-5.68 25.89,-6.00 25.43,-6.33 25.11,-6.78 24.78,-7.24 24.61,-7.77 24.45,-8.31 24.47,-8.87 24.48,-9.43 24.67,-9.95 24.86,-10.48 25.22,-10.91 25.57,-11.35 26.04,-11.65 26.51,-11.95 27.05,-12.09 27.59,-12.22 28.15,-12.18 28.71,-12.13 29.22,-11.91 29.74,-11.69 30.15,-11.32 30.57,-10.94 30.85,-10.46 31.12,-9.97 31.23,-9.42 31.33,-8.87 31.26,-8.32 31.18,-7.76 30.93,-7.26 30.69,-6.76 30.29,-6.36 29.90,-5.97 29.39,-5.72 28.89,-5.47 28.34,-5.40 27.78,-5.32 27.78,-5.32 27.79,-5.32 25.54,-5.47 23.30,-5.62 22.09,-5.62 20.88,-5.63 19.57,-5.64 18.26,-5.64 17.20,-5.51 16.14,-5.39 15.06,-5.24 13.99,-5.10 12.70,-4.79 11.41,-4.48 10.36,-3.96 9.31,-3.43 8.34,-2.92 7.37,-2.42 6.43,-1.83 5.48,-1.25 4.50,-0.49 3.52,0.26 2.69,1.06 1.86,1.86 1.61,2.06 1.36,2.26 1.07,2.39 0.78,2.52 0.47,2.58 0.15,2.63 -0.15,2.61 -0.47,2.59 -0.78,2.50 -1.08,2.40 -1.35,2.24 -1.63,2.08 -1.85,1.85 -2.08,1.62 -2.24,1.35 -2.41,1.08 -2.50,0.78 -2.59,0.47 -2.61,0.15 -2.63,-0.15 -2.58,-0.47 -2.52,-0.78 -2.39,-1.07 -2.26,-1.36 -2.06,-1.61 -1.86,-1.86 -1.86,-1.86 L -1.86,-1.86 Z"></path></g><g transform="translate(76.91611174193531 93.20819552111607) rotate(11.256360323642275 -1.5572350828242634 1.1325483521413844)" stroke="none"><path d="M1.97 -1.01 L-0.91 1.82 L1.75 -0.18 L1.88 2.41 L0.8 0.01 L-1.93 1.12 L-0.04 -1.5 L0.83 -0.06 L0.24 0.51 L-1.76 -1.27 L-1.17 -2.66 L-3.32 -2.44 L-3.46 -1.38 L-1.15 -0.19 L-3.7 -0.56 L-1.4 2.5 L-1.87 2.34 L-1.85 -0.33 L-1.51 0.51 L0.58 1.54 L2.3 1.15 L2.15 0.23 L2.09 -2.21 L1.14 0.05 L-0.89 -0.84 L0.45 -2.25 L-0.61 -3.15 L0.14 -3.12 L-0.61 -0.05 L-2.28 -0.29 L-1.96 0.16 L-4.12 -3.29 L-4.13 -0.5 L-2.91 -2.06 L-2.12 0.02 L-2.78 0.82 L-5.63 2.98 L-4.92 0.36 L-4.74 1.95 L-4.23 1.48 L-2.51 1.68 L-1.01 2.99 L-2.1 0.39 L-0.63 1.01 L1.5 3.2 L-1.05 1.29 L-2.24 1.55 L-0.74 2.06 L0.61 0.94 L0.42 0.28 L-0.43 -1.12 L-2 -1.2 L-0.22 -1.36 L-1.52 -2.19 L-3.74 -1.03 L-3.94 1.98 L-1.25 1.81 L-0.44 3.6 L-2.5 0.57 L-0.16 2.83 L-2.81 4.68 L-0.53 1.73 L-0.75 1.63 L-0.04 2 L2.44 4.64 L1.39 4.62 L3.38 2.15 L2.74 2.8 L-0.23 0.88 L3.29 0.19 L2.28 1.92 L0.09 0.91 L-0.49 0.94 L-1.24 0.12 L-0.07 1.36 L-1.02 1.45 L-0.38 -1.04 L-0.12 2.16 L-1.74 1.53 L-0.53 0.52 L-2.58 0.92 L-1.63 3.02 L-0.31 1.02 L-3.34 3.74 L-1.57 0.89 L0.76 1.79 L-0.27 1.35 L0.79 1.34 L1.57 1.26 L0.37 -0.12 L2.11 2.38 L0.27 0.79 L-1.18 1.92 L-0.69 -1.52 L-0.65 -1.12 L-3.68 -2.15 L-3.05 1.7 L-4.97 -0.59 L-4.97 -1.14 L-6.24 -0.15 L-3.39 0.33 L-5.12 2.6 L-4.53 3.24 L-3.22 2.72 L-6.16 1.07 L-4.11 2.03 L-5.31 4.46 L-2.2 3.37 L-3.12 5.26 L-3 4.06 L-1.97 5.9 L-0.56 4.74 L0.22 2.59 L-2.04 5.67 L-1.18 3.28 L1.15 2.45 L-0.87 1.39 L0.18 3.38 L1.15 2.95 L-2.02 0.13 L-1.49 2.32 L-0.76 1.98 L-1.28 0.48 L-2.21 -0.48 L-3.68 1.28 L-3.92 1.25 L-4.83 3.51 L-1.97 0.99 L-3.26 3.38 L-3.57 1.89 L-1.92 4.61 L-3.02 4.43 L0.14 3.52 L-1.76 2.12 L-1.36 5.31 L-1.17 3.23 L-0.84 3.82 L-0.04 4.49 L1.47 4.05 L-1.4 3.98 L0.07 2.18 L-1.7 2.79 L-1.5 0.17 L-1.65 1.92 L-0.95 2 L0.39 1.13 L-0.42 0.25" stroke="none" stroke-width="0" fill="#ffffff" fill-rule="evenodd"></path><path fill="#fff" d="M -1.00,2.34 Q -1.00,2.34 -1.58,2.14 -2.17,1.93 -1.55,2.08 -0.93,2.24 -1.22,2.41 -1.51,2.59 -1.83,2.69 -2.15,2.79 -2.49,2.81 -2.83,2.83 -3.16,2.77 -3.49,2.71 -3.80,2.58 -4.11,2.44 -4.38,2.23 -4.64,2.02 -4.85,1.76 -5.06,1.49 -5.20,1.18 -5.34,0.88 -5.41,0.54 -5.47,0.21 -5.45,-0.12 -5.43,-0.45 -5.33,-0.78 -5.23,-1.10 -5.06,-1.39 -4.88,-1.68 -4.64,-1.92 -4.41,-2.16 -2.70,-2.19 -0.99,-2.21 -1.26,-1.15 -1.53,-0.08 -2.60,0.11 -3.67,0.32 -2.58,1.29 -1.48,2.26 -0.30,1.90 0.87,1.55 -0.11,0.97 -1.09,0.40 -1.50,1.59 -1.92,2.78 -0.73,2.94 0.45,3.11 0.51,1.20 0.57,-0.70 -0.99,-0.53 -2.55,-0.35 -2.91,1.15 -3.26,2.66 -2.13,2.23 -0.99,1.80 -1.50,0.66 -2.00,-0.47 -3.01,0.72 -4.02,1.93 -3.41,3.35 -2.81,4.77 -1.36,4.50 0.07,4.22 0.31,2.83 0.54,1.43 -0.15,0.52 -0.85,-0.38 -2.16,0.76 -3.48,1.90 -2.78,-0.68 -2.09,-3.27 -1.49,-3.45 -0.89,-3.64 -0.27,-3.62 0.35,-3.60 0.94,-3.38 1.52,-3.16 2.01,-2.77 2.49,-2.37 2.83,-1.85 3.16,-1.32 3.31,-0.71 3.46,-0.10 3.41,0.51 3.35,1.13 3.10,1.71 2.86,2.28 2.44,2.74 2.02,3.21 1.47,3.51 0.93,3.82 0.31,3.93 -0.29,4.05 -0.91,3.96 -1.53,3.88 -2.09,3.60 -2.65,3.32 -3.09,2.87 -3.53,2.43 -3.81,1.87 -4.08,1.31 -4.16,0.69 -4.25,0.07 -4.13,-0.54 -4.01,-1.15 -3.70,-1.69 -3.39,-2.24 -2.92,-2.65 -2.45,-3.07 -1.88,-3.31 -1.30,-3.56 -0.68,-3.61 -0.05,-3.66 0.54,-3.50 1.15,-3.35 1.67,-3.01 2.20,-2.67 2.59,-2.18 2.98,-1.69 3.19,-1.11 3.41,-0.52 3.42,0.10 3.43,0.72 3.25,1.32 3.06,1.92 2.70,2.42 2.33,2.93 1.82,3.29 1.31,3.66 1.31,3.65 1.31,3.65 2.58,3.99 3.85,4.32 3.10,5.31 2.34,6.29 1.01,6.86 -0.32,7.43 -1.77,7.19 -3.21,6.95 -4.52,6.06 -5.83,5.17 -6.34,4.21 -6.85,3.25 -6.18,1.09 -5.51,-1.06 -4.47,-1.55 -3.43,-2.03 -2.00,-2.15 -0.57,-2.26 0.66,-1.71 1.91,-1.17 2.48,-0.10 3.06,0.97 3.14,2.68 3.22,4.40 2.64,5.36 2.06,6.32 0.82,6.92 -0.41,7.52 -1.55,7.55 -2.70,7.58 -4.22,6.90 -5.75,6.22 -6.82,5.26 -7.89,4.29 -8.23,2.63 -8.57,0.97 -8.26,-0.16 -7.96,-1.30 -6.83,-2.42 -5.71,-3.53 -3.77,-3.76 -1.83,-3.99 -0.37,-3.55 1.07,-3.11 2.12,-2.21 3.16,-1.31 3.54,0.58 3.93,2.48 3.38,3.51 2.83,4.55 1.65,5.20 0.47,5.84 -0.69,5.88 -1.87,5.91 -3.30,5.16 -4.73,4.41 -5.22,3.24 -5.70,2.07 -5.53,0.51 -5.36,-1.03 -3.93,-2.35 -2.51,-3.66 -0.60,-3.59 1.29,-3.51 2.44,-2.60 3.59,-1.69 4.28,-0.72 4.98,0.23 5.03,2.17 5.07,4.10 3.74,5.40 2.40,6.70 1.09,6.87 -0.20,7.04 -1.56,6.61 -2.91,6.19 -4.25,5.02 -5.58,3.85 -5.90,1.89 -6.22,-0.06 -5.15,-1.89 -4.08,-3.71 -2.90,-4.01 -1.73,-4.30 -0.30,-3.99 1.12,-3.68 2.08,-2.26 3.04,-0.84 3.14,0.31 3.24,1.48 2.56,2.95 1.87,4.42 0.30,4.96 -1.26,5.50 -2.44,5.37 -3.61,5.23 -4.62,4.76 -5.63,4.29 -6.40,3.26 -7.17,2.23 -7.30,1.11 -7.43,-0.01 -6.83,-1.30 -6.24,-2.59 -5.20,-3.54 -4.16,-4.49 -3.01,-4.75 -1.87,-5.00 -0.64,-4.88 0.58,-4.75 2.04,-3.81 3.50,-2.88 3.91,-1.88 4.31,-0.88 3.87,0.76 3.42,2.41 1.99,2.99 0.55,3.58 -0.59,3.47 -1.74,3.35 -2.81,2.96 -3.88,2.57 -2.40,2.40 -0.93,2.23 -1.22,2.41 -1.51,2.59 -1.83,2.69 -2.15,2.79 -2.49,2.81 -2.83,2.83 -3.16,2.77 -3.49,2.71 -3.80,2.58 -4.11,2.44 -4.38,2.23 -4.64,2.02 -4.85,1.76 -5.06,1.49 -5.20,1.18 -5.34,0.88 -5.41,0.54 -5.47,0.21 -5.45,-0.12 -5.43,-0.45 -5.33,-0.78 -5.23,-1.10 -5.06,-1.39 -4.88,-1.68 -4.64,-1.92 -4.41,-2.16 -4.30,-2.29 -4.20,-2.43 -2.15,-2.67 -0.10,-2.91 0.44,-2.62 1.00,-2.34 1.26,-2.18 1.53,-2.03 1.75,-1.82 1.97,-1.60 2.14,-1.34 2.30,-1.08 2.40,-0.79 2.49,-0.50 2.52,-0.19 2.54,0.10 2.49,0.41 2.44,0.71 2.32,0.99 2.20,1.27 2.01,1.52 1.83,1.76 1.59,1.96 1.35,2.15 1.07,2.28 0.80,2.41 0.50,2.47 0.19,2.54 -0.10,2.52 -0.41,2.51 -0.70,2.42 -1.00,2.34 -1.00,2.34 L -1.00,2.34 Z"></path></g><g stroke-linecap="round"><g transform="translate(47.27500087678345 103.99593905574329) rotate(0 26.07967354950779 -36.16404374396825)"><path d="M0.83 1.31 C11.46 -13.79, 19.77 -31.86, 52.14 -73.64 M0.01 0.37 C11.3 -14.8, 20.68 -31.65, 50.77 -72.85" stroke="#fff" stroke-width="2" fill="none"></path></g></g><mask></mask></svg>