<?xml version="1.0"?>
<svg width="400" height="400" xmlns="http://www.w3.org/2000/svg" xmlns:svg="http://www.w3.org/2000/svg" xmlns:xlink="http://www.w3.org/1999/xlink">
 <!-- Created with SVG-edit - https://github.com/SVG-Edit/svgedit-->
 <defs>
  <symbol height="278.86" id="svg_22" version="1.1" viewBox="0 0 138.30096109824444 139.43001089805875" width="276.6" xmlns="http://www.w3.org/2000/svg">
   <!-- svg-source:excalidraw -->
   <defs>
    <style class="style-fonts">@font-face {
        font-family: &quot;Virgil&quot;;
        src: url(&quot;https://excalidraw.com/Virgil.woff2&quot;);
      }
      @font-face {
        font-family: &quot;Cascadia&quot;;
        src: url(&quot;https://excalidraw.com/Cascadia.woff2&quot;);
      }</style>
   </defs>
   <g stroke-linecap="round" transform="translate(10 10) rotate(0 59.15048054912222 59.71500544902938)">
    <path d="m0,0l118.3,0l0,119.43l-118.3,0" fill="#000" stroke-width="0"/>
    <path d="m0,0c44.07,0 88.15,0 118.3,0m-118.3,0c25.09,0 50.17,0 118.3,0m0,0c0,31.4 0,62.8 0,119.43m0,-119.43c0,38.9 0,77.8 0,119.43m0,0c-36.41,0 -72.83,0 -118.3,0m118.3,0c-42.28,0 -84.56,0 -118.3,0m0,0c0,-38.69 0,-77.38 0,-119.43m0,119.43c0,-41.71 0,-83.42 0,-119.43" fill="none" stroke="#000000" stroke-width="4"/>
   </g>
   <g transform="translate(37.10453530388986 65.47676118681557) rotate(11.256360323642275 30.72025254304208 -11.60857200593091)">
    <path d="m-2.4,-1.1q0,0 0.48,-1.07q0.47,-1.06 1.26,-2.67q0.78,-1.6 1.73,-3.02q0.95,-1.42 1.85,-2.26q0.9,-0.84 1.83,-1.56q0.94,-0.72 2.56,-1.96q1.63,-1.23 3.47,-2.44q1.85,-1.2 2.97,-1.8q1.12,-0.59 2.12,-1.14q1,-0.56 2.13,-1.13q1.12,-0.57 2.21,-1.08q1.08,-0.52 2.95,-1.38q1.87,-0.87 2.92,-1.27q1.05,-0.39 2.49,-0.8q1.44,-0.4 3.28,-0.63q1.84,-0.23 3.98,-0.21q2.14,0.02 4.41,0.12q2.28,0.1 4.63,0.19q2.34,0.09 4.55,0.33q2.2,0.24 3.97,0.45q1.78,0.21 3.17,0.32q1.39,0.11 3.28,0.62q1.89,0.5 2.18,0.65q0.29,0.15 0.52,0.39q0.23,0.24 0.37,0.54q0.14,0.3 0.17,0.62q0.04,0.33 -0.03,0.65q-0.07,0.32 -0.24,0.6q-0.17,0.29 -0.41,0.5q-0.25,0.22 -0.56,0.34q-0.3,0.12 -0.63,0.14q-0.33,0.02 -0.65,-0.07q-0.32,-0.08 -0.59,-0.27q-0.27,-0.18 -0.47,-0.44q-0.2,-0.26 -0.31,-0.57q-0.11,-0.31 -0.11,-0.64q0,-0.33 0.11,-0.64q0.1,-0.32 0.3,-0.58q0.19,-0.26 0.47,-0.45q0.27,-0.18 0.58,-0.27q0.32,-0.09 0.65,-0.08q0.33,0.02 0.63,0.14q0.31,0.12 0.56,0.33q0.25,0.22 0.42,0.5q0.17,0.28 0.25,0.6q0.07,0.32 0.03,0.65q-0.03,0.32 -0.17,0.62q-0.13,0.3 -0.36,0.54q-0.22,0.24 -0.51,0.4q-0.29,0.15 -0.62,0.21q-0.32,0.05 -0.65,0q-0.32,-0.05 -0.32,-0.05q0,0 -1.5,-0.5q-1.51,-0.49 -2.88,-0.74q-1.38,-0.25 -3.04,-0.49q-1.67,-0.25 -3.73,-0.32q-2.06,-0.07 -4.37,0.06q-2.32,0.13 -4.51,0.33q-2.18,0.19 -4.03,0.43q-1.85,0.23 -3.27,0.52q-1.42,0.28 -2.66,0.7q-1.23,0.42 -2.27,0.82q-1.04,0.39 -2.72,1.13q-1.68,0.74 -2.66,1.2q-0.97,0.46 -2.01,1.02q-1.04,0.56 -2.07,1.14q-1.02,0.58 -1.99,1.12q-0.97,0.54 -2.65,1.62q-1.67,1.09 -3.24,2.23q-1.56,1.15 -2.87,2.14q-1.31,0.99 -2.18,2.1q-0.88,1.12 -1.64,2.38q-0.76,1.25 -1.26,2.29q-0.5,1.05 -0.67,1.32q-0.17,0.27 -0.4,0.5q-0.22,0.22 -0.5,0.38q-0.27,0.17 -0.58,0.26q-0.3,0.09 -0.62,0.11q-0.31,0.01 -0.62,-0.05q-0.32,-0.06 -0.6,-0.19q-0.29,-0.14 -0.54,-0.33q-0.25,-0.2 -0.45,-0.46q-0.19,-0.25 -0.32,-0.54q-0.13,-0.29 -0.18,-0.61q-0.05,-0.31 -0.03,-0.62q0.02,-0.32 0.12,-0.62q0.1,-0.3 0.09,-0.3l0,0z" fill="#fff"/>
   </g>
   <g transform="translate(47.95644555934632 74.8211626131233) rotate(11.256360323642275 21.518343085215747 -8.210937750289304)">
    <path d="m-2.22,-1.48q0,0 0.64,-0.98q0.64,-0.99 1.5,-2.34q0.85,-1.35 1.61,-2.44q0.75,-1.09 1.78,-2.02q1.03,-0.93 2.05,-1.74q1.02,-0.81 2.07,-1.62q1.06,-0.81 2.6,-1.59q1.54,-0.77 2.77,-1.46q1.22,-0.68 2.47,-1.21q1.25,-0.54 2.54,-0.86q1.29,-0.32 2.72,-0.58q1.43,-0.25 2.71,-0.57q1.28,-0.31 2.4,-0.41q1.11,-0.09 2.8,-0.24q1.69,-0.15 3.29,-0.18q1.6,-0.04 3.36,-0.03q1.76,0 5.34,0.63q3.57,0.63 4.04,0.89q0.48,0.27 0.84,0.67q0.36,0.4 0.58,0.9q0.22,0.49 0.26,1.03q0.05,0.54 -0.08,1.07q-0.13,0.52 -0.42,0.98q-0.29,0.46 -0.71,0.8q-0.42,0.34 -0.92,0.53q-0.51,0.19 -1.05,0.2q-0.54,0.02 -1.06,-0.14q-0.52,-0.15 -0.96,-0.47q-0.44,-0.31 -0.76,-0.75q-0.31,-0.44 -0.48,-0.95q-0.16,-0.52 -0.14,-1.06q0.01,-0.54 0.19,-1.05q0.19,-0.51 0.52,-0.93q0.34,-0.42 0.79,-0.72q0.46,-0.29 0.98,-0.42q0.53,-0.14 1.07,-0.1q0.54,0.05 1.03,0.26q0.5,0.21 0.91,0.57q0.4,0.36 0.67,0.83q0.27,0.47 0.37,1q0.11,0.53 0.04,1.07q-0.07,0.53 -0.31,1.02q-0.24,0.48 -0.62,0.87q-0.38,0.38 -0.87,0.62q-0.48,0.25 -1.02,0.32q-0.53,0.08 -1.06,-0.02q-0.53,-0.1 -0.53,-0.1q0,0 -2.44,-0.44q-2.43,-0.44 -4.16,-0.43q-1.73,0.02 -3.15,0.04q-1.42,0.03 -3.06,0.19q-1.65,0.17 -2.98,0.36q-1.34,0.19 -2.73,0.43q-1.39,0.24 -2.81,0.51q-1.42,0.28 -2.49,0.69q-1.06,0.41 -2.39,1.1q-1.33,0.7 -2.34,1.12q-1.01,0.42 -2.03,1.13q-1.01,0.7 -2.43,1.68q-1.41,0.97 -2.34,1.92q-0.94,0.96 -1.89,2.2q-0.95,1.25 -1.61,2.21q-0.66,0.97 -0.87,1.21q-0.21,0.25 -0.47,0.43q-0.27,0.19 -0.56,0.31q-0.3,0.12 -0.62,0.16q-0.32,0.05 -0.63,0.01q-0.32,-0.03 -0.63,-0.14q-0.3,-0.11 -0.57,-0.29q-0.26,-0.18 -0.48,-0.41q-0.22,-0.24 -0.37,-0.53q-0.16,-0.28 -0.24,-0.59q-0.08,-0.31 -0.09,-0.63q0,-0.31 0.07,-0.63q0.07,-0.31 0.22,-0.6q0.14,-0.29 0.14,-0.29l0,0z" fill="#fff"/>
   </g>
   <g transform="translate(57.77677343354662 84.88130422136237) rotate(11.256360323642275 14.015234554035487 -4.530171807002262)">
    <path d="m-1.86,-1.86q0,0 0.8,-0.83q0.8,-0.83 1.75,-1.77q0.95,-0.95 2.34,-2.07q1.39,-1.11 2.46,-1.81q1.07,-0.71 2.79,-1.54q1.73,-0.83 3.2,-1.26q1.47,-0.43 2.76,-0.64q1.3,-0.22 2.36,-0.39q1.06,-0.17 2.18,-0.22q1.13,-0.05 2.82,-0.08q1.7,-0.02 4.03,0.11q2.34,0.13 2.89,0.23q0.55,0.11 1.03,0.38q0.49,0.28 0.86,0.69q0.38,0.42 0.6,0.93q0.22,0.52 0.27,1.07q0.04,0.56 -0.09,1.1q-0.14,0.55 -0.44,1.02q-0.3,0.47 -0.73,0.82q-0.44,0.35 -0.96,0.55q-0.53,0.19 -1.09,0.21q-0.56,0.01 -1.09,-0.15q-0.54,-0.17 -0.99,-0.49q-0.46,-0.33 -0.78,-0.78q-0.33,-0.46 -0.5,-0.99q-0.16,-0.54 -0.14,-1.1q0.01,-0.56 0.2,-1.08q0.19,-0.53 0.55,-0.96q0.35,-0.44 0.82,-0.74q0.47,-0.3 1.01,-0.44q0.54,-0.13 1.1,-0.09q0.56,0.05 1.07,0.27q0.52,0.22 0.93,0.59q0.42,0.38 0.7,0.86q0.27,0.49 0.38,1.04q0.1,0.55 0.03,1.1q-0.08,0.56 -0.33,1.06q-0.24,0.5 -0.64,0.9q-0.39,0.39 -0.9,0.64q-0.5,0.25 -1.05,0.32q-0.56,0.08 -0.56,0.08q0.01,0 -2.24,-0.15q-2.24,-0.15 -3.45,-0.15q-1.21,-0.01 -2.52,-0.02q-1.31,0 -2.37,0.13q-1.06,0.12 -2.14,0.27q-1.07,0.14 -2.36,0.45q-1.29,0.31 -2.34,0.83q-1.05,0.53 -2.02,1.04q-0.97,0.5 -1.91,1.09q-0.95,0.58 -1.93,1.34q-0.98,0.75 -1.81,1.55q-0.83,0.8 -1.08,1q-0.25,0.2 -0.54,0.33q-0.29,0.13 -0.6,0.19q-0.32,0.05 -0.62,0.03q-0.32,-0.02 -0.63,-0.11q-0.3,-0.1 -0.57,-0.26q-0.28,-0.16 -0.5,-0.39q-0.23,-0.23 -0.39,-0.5q-0.17,-0.27 -0.26,-0.57q-0.09,-0.31 -0.11,-0.63q-0.02,-0.3 0.03,-0.62q0.06,-0.31 0.19,-0.6q0.13,-0.29 0.33,-0.54q0.2,-0.25 0.2,-0.25l0,0z" fill="#fff"/>
   </g>
   <g transform="translate(76.91611174193531 93.20819552111607) rotate(11.256360323642275 -1.5572350828242634 1.1325483521413844)">
    <path d="m1.97,-1.01l-2.88,2.83l2.66,-2l0.13,2.59l-1.08,-2.4l-2.73,1.11l1.89,-2.62l0.87,1.44l-0.59,0.57l-2,-1.78l0.59,-1.39l-2.15,0.22l-0.14,1.06l2.31,1.19l-2.55,-0.37l2.3,3.06l-0.47,-0.16l0.02,-2.67l0.34,0.84l2.09,1.03l1.72,-0.39l-0.15,-0.92l-0.06,-2.44l-0.95,2.26l-2.03,-0.89l1.34,-1.41l-1.06,-0.9l0.75,0.03l-0.75,3.07l-1.67,-0.24l0.32,0.45l-2.16,-3.45l-0.01,2.79l1.22,-1.56l0.79,2.08l-0.66,0.8l-2.85,2.16l0.71,-2.62l0.18,1.59l0.51,-0.47l1.72,0.2l1.5,1.31l-1.09,-2.6l1.47,0.62l2.13,2.19l-2.55,-1.91l-1.19,0.26l1.5,0.51l1.35,-1.12l-0.19,-0.66l-0.85,-1.4l-1.57,-0.08l1.78,-0.16l-1.3,-0.83l-2.22,1.16l-0.2,3.01l2.69,-0.17l0.81,1.79l-2.06,-3.03l2.34,2.26l-2.65,1.85l2.28,-2.95l-0.22,-0.1l0.71,0.37l2.48,2.64l-1.05,-0.02l1.99,-2.47l-0.64,0.65l-2.97,-1.92l3.52,-0.69l-1.01,1.73l-2.19,-1.01l-0.58,0.03l-0.75,-0.82l1.17,1.24l-0.95,0.09l0.64,-2.49l0.26,3.2l-1.62,-0.63l1.21,-1.01l-2.05,0.4l0.95,2.1l1.32,-2l-3.03,2.72l1.77,-2.85l2.33,0.9l-1.03,-0.44l1.06,-0.01l0.78,-0.08l-1.2,-1.38l1.74,2.5l-1.84,-1.59l-1.45,1.13l0.49,-3.44l0.04,0.4l-3.03,-1.03l0.63,3.85l-1.92,-2.29l0,-0.55l-1.27,0.99l2.85,0.48l-1.73,2.27l0.59,0.64l1.31,-0.52l-2.94,-1.65l2.05,0.96l-1.2,2.43l3.11,-1.09l-0.92,1.89l0.12,-1.2l1.03,1.84l1.41,-1.16l0.78,-2.15l-2.26,3.08l0.86,-2.39l2.33,-0.83l-2.02,-1.06l1.05,1.99l0.97,-0.43l-3.17,-2.82l0.53,2.19l0.73,-0.34l-0.52,-1.5l-0.93,-0.96l-1.47,1.76l-0.24,-0.03l-0.91,2.26l2.86,-2.52l-1.29,2.39l-0.31,-1.49l1.65,2.72l-1.1,-0.18l3.16,-0.91l-1.9,-1.4l0.4,3.19l0.19,-2.08l0.33,0.59l0.8,0.67l1.51,-0.44l-2.87,-0.07l1.47,-1.8l-1.77,0.61l0.2,-2.62l-0.15,1.75l0.7,0.08l1.34,-0.87l-0.81,-0.88" fill="#ffffff" fill-rule="evenodd" stroke-width="0"/>
    <path d="m-1,2.34q0,0 -0.58,-0.2q-0.59,-0.21 0.03,-0.06q0.62,0.16 0.33,0.33q-0.29,0.18 -0.61,0.28q-0.32,0.1 -0.66,0.12q-0.34,0.02 -0.67,-0.04q-0.33,-0.06 -0.64,-0.19q-0.31,-0.14 -0.58,-0.35q-0.26,-0.21 -0.47,-0.47q-0.21,-0.27 -0.35,-0.58q-0.14,-0.3 -0.21,-0.64q-0.06,-0.33 -0.04,-0.66q0.02,-0.33 0.12,-0.66q0.1,-0.32 0.27,-0.61q0.18,-0.29 0.42,-0.53q0.23,-0.24 1.94,-0.27q1.71,-0.02 1.44,1.04q-0.27,1.07 -1.34,1.26q-1.07,0.21 0.02,1.18q1.1,0.97 2.28,0.61q1.17,-0.35 0.19,-0.93q-0.98,-0.57 -1.39,0.62q-0.42,1.19 0.77,1.35q1.18,0.17 1.24,-1.74q0.06,-1.9 -1.5,-1.73q-1.56,0.18 -1.92,1.68q-0.35,1.51 0.78,1.08q1.14,-0.43 0.63,-1.57q-0.5,-1.13 -1.51,0.06q-1.01,1.21 -0.4,2.63q0.6,1.42 2.05,1.15q1.43,-0.28 1.67,-1.67q0.23,-1.4 -0.46,-2.31q-0.7,-0.9 -2.01,0.24q-1.32,1.14 -0.62,-1.44q0.69,-2.59 1.29,-2.77q0.6,-0.19 1.22,-0.17q0.62,0.02 1.21,0.24q0.58,0.22 1.07,0.61q0.48,0.4 0.82,0.92q0.33,0.53 0.48,1.14q0.15,0.61 0.1,1.22q-0.06,0.62 -0.31,1.2q-0.24,0.57 -0.66,1.03q-0.42,0.47 -0.97,0.77q-0.54,0.31 -1.16,0.42q-0.6,0.12 -1.22,0.03q-0.62,-0.08 -1.18,-0.36q-0.56,-0.28 -1,-0.73q-0.44,-0.44 -0.72,-1q-0.27,-0.56 -0.35,-1.18q-0.09,-0.62 0.03,-1.23q0.12,-0.61 0.43,-1.15q0.31,-0.55 0.78,-0.96q0.47,-0.42 1.04,-0.66q0.58,-0.25 1.2,-0.3q0.63,-0.05 1.22,0.11q0.61,0.15 1.13,0.49q0.53,0.34 0.92,0.83q0.39,0.49 0.6,1.07q0.22,0.59 0.23,1.21q0.01,0.62 -0.17,1.22q-0.19,0.6 -0.55,1.1q-0.37,0.51 -0.88,0.87q-0.51,0.37 -0.51,0.36q0,0 1.27,0.34q1.27,0.33 0.52,1.32q-0.76,0.98 -2.09,1.55q-1.33,0.57 -2.78,0.33q-1.44,-0.24 -2.75,-1.13q-1.31,-0.89 -1.82,-1.85q-0.51,-0.96 0.16,-3.12q0.67,-2.15 1.71,-2.64q1.04,-0.48 2.47,-0.6q1.43,-0.11 2.66,0.44q1.25,0.54 1.82,1.61q0.58,1.07 0.66,2.78q0.08,1.72 -0.5,2.68q-0.58,0.96 -1.82,1.56q-1.23,0.6 -2.37,0.63q-1.15,0.03 -2.67,-0.65q-1.53,-0.68 -2.6,-1.64q-1.07,-0.97 -1.41,-2.63q-0.34,-1.66 -0.03,-2.79q0.3,-1.14 1.43,-2.26q1.12,-1.11 3.06,-1.34q1.94,-0.23 3.4,0.21q1.44,0.44 2.49,1.34q1.04,0.9 1.42,2.79q0.39,1.9 -0.16,2.93q-0.55,1.04 -1.73,1.69q-1.18,0.64 -2.34,0.68q-1.18,0.03 -2.61,-0.72q-1.43,-0.75 -1.92,-1.92q-0.48,-1.17 -0.31,-2.73q0.17,-1.54 1.6,-2.86q1.42,-1.31 3.33,-1.24q1.89,0.08 3.04,0.99q1.15,0.91 1.84,1.88q0.7,0.95 0.75,2.89q0.04,1.93 -1.29,3.23q-1.34,1.3 -2.65,1.47q-1.29,0.17 -2.65,-0.26q-1.35,-0.42 -2.69,-1.59q-1.33,-1.17 -1.65,-3.13q-0.32,-1.95 0.75,-3.78q1.07,-1.82 2.25,-2.12q1.17,-0.29 2.6,0.02q1.42,0.31 2.38,1.73q0.96,1.42 1.06,2.57q0.1,1.17 -0.58,2.64q-0.69,1.47 -2.26,2.01q-1.56,0.54 -2.74,0.41q-1.17,-0.14 -2.18,-0.61q-1.01,-0.47 -1.78,-1.5q-0.77,-1.03 -0.9,-2.15q-0.13,-1.12 0.47,-2.41q0.59,-1.29 1.63,-2.24q1.04,-0.95 2.19,-1.21q1.14,-0.25 2.37,-0.13q1.22,0.13 2.68,1.07q1.46,0.93 1.87,1.93q0.4,1 -0.04,2.64q-0.45,1.65 -1.88,2.23q-1.44,0.59 -2.58,0.48q-1.15,-0.12 -2.22,-0.51q-1.07,-0.39 0.41,-0.56q1.47,-0.17 1.18,0.01q-0.29,0.18 -0.61,0.28q-0.32,0.1 -0.66,0.12q-0.34,0.02 -0.67,-0.04q-0.33,-0.06 -0.64,-0.19q-0.31,-0.14 -0.58,-0.35q-0.26,-0.21 -0.47,-0.47q-0.21,-0.27 -0.35,-0.58q-0.14,-0.3 -0.21,-0.64q-0.06,-0.33 -0.04,-0.66q0.02,-0.33 0.12,-0.66q0.1,-0.32 0.27,-0.61q0.18,-0.29 0.42,-0.53q0.23,-0.24 0.34,-0.37q0.1,-0.14 2.15,-0.38q2.05,-0.24 2.59,0.05q0.56,0.28 0.82,0.44q0.27,0.15 0.49,0.36q0.22,0.22 0.39,0.48q0.16,0.26 0.26,0.55q0.09,0.29 0.12,0.6q0.02,0.29 -0.03,0.6q-0.05,0.3 -0.17,0.58q-0.12,0.28 -0.31,0.53q-0.18,0.24 -0.42,0.44q-0.24,0.19 -0.52,0.32q-0.27,0.13 -0.57,0.19q-0.31,0.07 -0.6,0.05q-0.31,-0.01 -0.6,-0.1q-0.3,-0.08 -0.3,-0.08l0,0z" fill="#fff"/>
   </g>
   <g stroke-linecap="round">
    <g transform="translate(47.27500087678345 103.99593905574329) rotate(0 26.07967354950779 -36.16404374396825)">
     <path d="m0.83,1.31c10.63,-15.1 18.94,-33.17 51.31,-74.95m-52.13,74.01c11.29,-15.17 20.67,-32.02 50.76,-73.22" fill="none" stroke="#fff" stroke-width="2"/>
    </g>
   </g>
   <mask/>
  </symbol>
 </defs>
 <g class="layer">
  <title>Layer 1</title>
  <use id="svg_23" transform="matrix(1.64335 0 0 1.64335 -1.52715 -1.52715)" x="-16.73" xlink:href="#svg_22" y="-16.73"/>
 </g>
</svg>