<svg version="1.1" xmlns="http://www.w3.org/2000/svg" viewBox="0 0 138.30096109824444 139.43001089805875" width="276.6019221964889" height="278.8600217961175">
  <!-- svg-source:excalidraw -->
  
  <defs>
    <style class="style-fonts">
      @font-face {
        font-family: "Virgil";
        src: url("https://excalidraw.com/Virgil.woff2");
      }
      @font-face {
        font-family: "Cascadia";
        src: url("https://excalidraw.com/Cascadia.woff2");
      }
    </style>
    
  </defs>
  <g stroke-linecap="round" transform="translate(10 10) rotate(0 59.15048054912222 59.71500544902938)"><path d="M0 0 L118.3 0 L118.3 119.43 L0 119.43" stroke="none" stroke-width="0" fill="#000"></path><path d="M0 0 C25.42 0, 50.84 0, 118.3 0 M0 0 C46.51 0, 93.01 0, 118.3 0 M118.3 0 C118.3 44.18, 118.3 88.37, 118.3 119.43 M118.3 0 C118.3 30.84, 118.3 61.68, 118.3 119.43 M118.3 119.43 C89.71 119.43, 61.11 119.43, 0 119.43 M118.3 119.43 C81.24 119.43, 44.18 119.43, 0 119.43 M0 119.43 C0 88.47, 0 57.51, 0 0 M0 119.43 C0 89.72, 0 60.02, 0 0" stroke="#000000" stroke-width="4" fill="none"></path></g><g stroke-linecap="round" transform="translate(55.58727696665301 29.20279118903636) rotate(22.887313092180193 23.360208251557196 29.50763033635394)"><path d="M9.58 8.33 C9.58 8.33, 9.58 8.33, 9.58 8.33 M9.58 8.33 C9.58 8.33, 9.58 8.33, 9.58 8.33 M12.77 30.09 C19.26 25.03, 22.17 11.86, 32.15 10.54 M10.21 33.1 C11.98 27.23, 15.96 23.63, 29.45 9.06 M12.68 50.56 C26.93 41.42, 35.42 25.74, 45.73 13.48 M13.54 50.85 C22.5 42.75, 29.49 34.97, 45.88 15.97 M20.87 67.65 C34.75 51.39, 48.49 44.82, 50.53 34.32 M25.31 64.88 C28.64 58.37, 34.63 51.4, 53.91 29.69 M16.95 58.23 C16.95 58.23, 16.95 58.23, 16.95 58.23 M16.95 58.23 C16.95 58.23, 16.95 58.23, 16.95 58.23 M37.95 54.47 C20.06 45.02, 9.66 36.05, 4.57 22.11 M35.89 53.45 C24.7 44.44, 13.57 35.65, -0.84 23.66 M47.88 39.19 C39.46 31.26, 28.12 23.95, 8.01 6.25 M45.38 42 C31.41 30.27, 19.92 18.23, 7.93 9.07 M50.64 20.05 C42.97 12.55, 33.32 7.3, 19.55 -0.93 M50.02 23.46 C44.26 15.33, 36.98 12.29, 22.75 -0.81" stroke="#ffffff" stroke-width="2" fill="none"></path><path d="M21.03 1.37 C25.91 0.96, 32.55 1.8, 36.86 5.69 C41.17 9.58, 45.65 18.24, 46.89 24.72 C48.13 31.2, 46.87 39.22, 44.3 44.57 C41.72 49.91, 36.01 54.51, 31.46 56.8 C26.91 59.08, 21.46 60.49, 17.02 58.29 C12.57 56.09, 7.65 49.23, 4.8 43.58 C1.95 37.93, -0.87 30.27, -0.08 24.4 C0.7 18.54, 3.17 11.83, 9.53 8.38 C15.89 4.94, 32.26 1.87, 38.07 3.74 C43.87 5.6, 45.04 19.13, 44.36 19.55 M38.13 11.29 C40.83 15.42, 43.58 19.98, 43.91 26.27 C44.24 32.55, 43 44.11, 40.11 49.01 C37.21 53.92, 31.19 54.43, 26.53 55.71 C21.87 57, 16.2 59.14, 12.16 56.73 C8.12 54.31, 4.28 47.71, 2.29 41.22 C0.3 34.73, -1.59 24.42, 0.21 17.81 C2.01 11.19, 8.62 4.03, 13.1 1.55 C17.59 -0.93, 22.34 1.73, 27.12 2.92 C31.89 4.1, 39.21 7.49, 41.74 8.64 C44.27 9.79, 42.7 8.81, 42.29 9.8" stroke="#ffffff" stroke-width="4" fill="none"></path></g><g stroke-linecap="round" transform="translate(32.60123924499567 39.68882826237859) rotate(0 7.417286225896532 7.308232573156602)"><path d="M8.67 -0.21 C10.01 -0.04, 10.55 1.28, 11.6 2.34 C12.65 3.41, 14.78 4.79, 14.98 6.19 C15.18 7.58, 13.76 9.48, 12.81 10.7 C11.85 11.92, 10.69 12.91, 9.25 13.51 C7.81 14.1, 5.55 14.68, 4.18 14.27 C2.81 13.87, 1.82 12.61, 1.04 11.06 C0.26 9.51, -0.91 6.62, -0.5 4.95 C-0.09 3.27, 1.8 1.83, 3.49 1.01 C5.17 0.19, 8.6 0, 9.6 0.04 C10.6 0.07, 9.77 1.22, 9.5 1.2 M3.57 2.01 C4.93 1.38, 7.95 0.74, 9.55 1.06 C11.15 1.38, 12.44 2.78, 13.16 3.91 C13.88 5.04, 14.04 6.32, 13.88 7.83 C13.71 9.33, 12.91 11.91, 12.14 12.93 C11.37 13.95, 10.95 13.71, 9.25 13.94 C7.54 14.16, 3.64 15.23, 1.9 14.29 C0.16 13.35, -0.82 10.17, -1.18 8.3 C-1.53 6.42, -1.01 4.07, -0.25 3.04 C0.5 2.01, 2.74 2.58, 3.36 2.12 C3.98 1.65, 3.12 0.32, 3.48 0.25" stroke="none" stroke-width="0" fill="#ffffff"></path><path d="M6.89 -0.59 C8.37 -0.85, 9.42 0.51, 10.82 1.43 C12.22 2.36, 14.89 3.58, 15.3 4.96 C15.71 6.34, 14.17 8.32, 13.29 9.72 C12.41 11.12, 11.45 12.44, 10.01 13.36 C8.56 14.27, 5.91 15.63, 4.6 15.22 C3.29 14.8, 2.87 12.26, 2.14 10.85 C1.42 9.45, 0.11 8.33, 0.27 6.8 C0.42 5.26, 1.74 2.81, 3.09 1.63 C4.44 0.45, 7.08 -0.14, 8.37 -0.27 C9.66 -0.4, 10.94 0.77, 10.82 0.84 M8.53 -1.1 C10.12 -1.11, 10.39 1.86, 11.41 2.84 C12.44 3.83, 14.35 3.29, 14.66 4.79 C14.97 6.3, 14.17 10.37, 13.28 11.87 C12.4 13.38, 10.67 13.52, 9.35 13.84 C8.03 14.17, 6.67 14.1, 5.38 13.83 C4.08 13.57, 2.42 13.48, 1.58 12.27 C0.74 11.06, 0.03 8.51, 0.34 6.55 C0.65 4.6, 2.1 1.61, 3.44 0.55 C4.77 -0.51, 7.57 0.25, 8.36 0.2 C9.14 0.16, 8.11 0.18, 8.14 0.28" stroke="#ffffff" stroke-width="4" fill="none"></path></g><g stroke-linecap="round" transform="translate(51.98193132252709 80.66717306988176) rotate(31.735202996048784 4.616670245875866 16.715934208556973)"><path d="M2.46 -1.71 L5.45 1.57 L10.42 1.17 L9.98 32.76 L8.7 34.36 L0.55 34.34 L0.93 29.58 L-1.09 3.03 L1.24 0.67" stroke="none" stroke-width="0" fill="#ffffff"></path><path d="M2.31 0 M2.31 0 C3.9 0.18, 4.23 -0.21, 6.93 0 M2.31 0 C3.49 0.2, 4.99 -0.22, 6.93 0 M6.93 0 C10.39 1.13, 10.97 -0.68, 9.23 2.31 M6.93 0 C7.62 1.75, 8 -1.27, 9.23 2.31 M9.23 2.31 C7.45 12.63, 10.02 18.17, 9.23 31.12 M9.23 2.31 C9.59 11.66, 9.08 23.35, 9.23 31.12 M9.23 31.12 C8.81 32.77, 6.62 32.71, 6.93 33.43 M9.23 31.12 C7.54 32.09, 6.94 32.55, 6.93 33.43 M6.93 33.43 C5.56 33.35, 3.51 33.76, 2.31 33.43 M6.93 33.43 C5.62 33.41, 4.85 33.19, 2.31 33.43 M2.31 33.43 C1.35 35.42, 0.04 33.12, 0 31.12 M2.31 33.43 C1.13 35.51, -1.29 32.48, 0 31.12 M0 31.12 C-0.73 18.22, 1.44 10.58, 0 2.31 M0 31.12 C-0.41 24.01, 0.37 18.02, 0 2.31 M0 2.31 C1.56 0.53, 1.69 1.24, 2.31 0 M0 2.31 C-1.89 0.18, -0.63 -1.52, 2.31 0" stroke="#ffffff" stroke-width="2" fill="none"></path></g></svg>