<?xml version="1.0"?>
<svg width="400" height="400" xmlns="http://www.w3.org/2000/svg" xmlns:svg="http://www.w3.org/2000/svg" xmlns:xlink="http://www.w3.org/1999/xlink">
 <!-- Created with SVG-edit - https://github.com/SVG-Edit/svgedit-->
 <defs>
  <symbol height="278.86" id="svg_24" version="1.1" viewBox="0 0 138.30096109824444 139.43001089805875" width="276.6" xmlns="http://www.w3.org/2000/svg">
   <!-- svg-source:excalidraw -->
   <defs>
    <style class="style-fonts">@font-face {
        font-family: &quot;Virgil&quot;;
        src: url(&quot;https://excalidraw.com/Virgil.woff2&quot;);
      }
      @font-face {
        font-family: &quot;Cascadia&quot;;
        src: url(&quot;https://excalidraw.com/Cascadia.woff2&quot;);
      }</style>
   </defs>
   <g stroke-linecap="round" transform="translate(10 10) rotate(0 59.15048054912222 59.71500544902938)">
    <path d="m0,0l118.3,0l0,119.43l-118.3,0" fill="#000" stroke-width="0"/>
    <path d="m0,0c25.42,0 50.84,0 118.3,0m-118.3,0c46.51,0 93.01,0 118.3,0m0,0c0,44.18 0,88.37 0,119.43m0,-119.43c0,30.84 0,61.68 0,119.43m0,0c-28.59,0 -57.19,0 -118.3,0m118.3,0c-37.06,0 -74.12,0 -118.3,0m0,0c0,-30.96 0,-61.92 0,-119.43m0,119.43c0,-29.71 0,-59.41 0,-119.43" fill="none" stroke="#000000" stroke-width="4"/>
   </g>
   <g stroke-linecap="round" transform="translate(55.58727696665301 29.20279118903636) rotate(22.887313092180193 23.360208251557196 29.50763033635394)">
    <path d="m9.58,8.33c0,0 0,0 0,0m0,0c0,0 0,0 0,0m3.19,21.76c6.49,-5.06 9.4,-18.23 19.38,-19.55m-21.94,22.56c1.77,-5.87 5.75,-9.47 19.24,-24.04m-16.77,41.5c14.25,-9.14 22.74,-24.82 33.05,-37.08m-32.19,37.37c8.96,-8.1 15.95,-15.88 32.34,-34.88m-25.01,51.68c13.88,-16.26 27.62,-22.83 29.66,-33.33m-25.22,30.56c3.33,-6.51 9.32,-13.48 28.6,-35.19m-36.96,28.54c0,0 0,0 0,0m0,0c0,0 0,0 0,0m21,-3.76c-17.89,-9.45 -28.29,-18.42 -33.38,-32.36m31.32,31.34c-11.19,-9.01 -22.32,-17.8 -36.73,-29.79m48.72,15.53c-8.42,-7.93 -19.76,-15.24 -39.87,-32.94m37.37,35.75c-13.97,-11.73 -25.46,-23.77 -37.45,-32.93m42.71,10.98c-7.67,-7.5 -17.32,-12.75 -31.09,-20.98m30.47,24.39c-5.76,-8.13 -13.04,-11.17 -27.27,-24.27" fill="none" stroke="#ffffff" stroke-width="2"/>
    <path d="m21.03,1.37c4.88,-0.41 11.52,0.43 15.83,4.32c4.31,3.89 8.79,12.55 10.03,19.03c1.24,6.48 -0.02,14.5 -2.59,19.85c-2.58,5.34 -8.29,9.94 -12.84,12.23c-4.55,2.28 -10,3.69 -14.44,1.49c-4.45,-2.2 -9.37,-9.06 -12.22,-14.71c-2.85,-5.65 -5.67,-13.31 -4.88,-19.18c0.78,-5.86 3.25,-12.57 9.61,-16.02c6.36,-3.44 22.73,-6.51 28.54,-4.64c5.8,1.86 6.97,15.39 6.29,15.81m-6.23,-8.26c2.7,4.13 5.45,8.69 5.78,14.98c0.33,6.28 -0.91,17.84 -3.8,22.74c-2.9,4.91 -8.92,5.42 -13.58,6.7c-4.66,1.29 -10.33,3.43 -14.37,1.02c-4.04,-2.42 -7.88,-9.02 -9.87,-15.51c-1.99,-6.49 -3.88,-16.8 -2.08,-23.41c1.8,-6.62 8.41,-13.78 12.89,-16.26c4.49,-2.48 9.24,0.18 14.02,1.37c4.77,1.18 12.09,4.57 14.62,5.72c2.53,1.15 0.96,0.17 0.55,1.16" fill="none" stroke="#ffffff" stroke-width="4"/>
   </g>
   <g stroke-linecap="round" transform="translate(32.60123924499567 39.68882826237859) rotate(0 7.417286225896532 7.308232573156602)">
    <path d="m8.67,-0.21c1.34,0.17 1.88,1.49 2.93,2.55c1.05,1.07 3.18,2.45 3.38,3.85c0.2,1.39 -1.22,3.29 -2.17,4.51c-0.96,1.22 -2.12,2.21 -3.56,2.81c-1.44,0.59 -3.7,1.17 -5.07,0.76c-1.37,-0.4 -2.36,-1.66 -3.14,-3.21c-0.78,-1.55 -1.95,-4.44 -1.54,-6.11c0.41,-1.68 2.3,-3.12 3.99,-3.94c1.68,-0.82 5.11,-1.01 6.11,-0.97c1,0.03 0.17,1.18 -0.1,1.16m-5.93,0.81c1.36,-0.63 4.38,-1.27 5.98,-0.95c1.6,0.32 2.89,1.72 3.61,2.85c0.72,1.13 0.88,2.41 0.72,3.92c-0.17,1.5 -0.97,4.08 -1.74,5.1c-0.77,1.02 -1.19,0.78 -2.89,1.01c-1.71,0.22 -5.61,1.29 -7.35,0.35c-1.74,-0.94 -2.72,-4.12 -3.08,-5.99c-0.35,-1.88 0.17,-4.23 0.93,-5.26c0.75,-1.03 2.99,-0.46 3.61,-0.92c0.62,-0.47 -0.24,-1.8 0.12,-1.87" fill="#ffffff" stroke-width="0"/>
    <path d="m6.89,-0.59c1.48,-0.26 2.53,1.1 3.93,2.02c1.4,0.93 4.07,2.15 4.48,3.53c0.41,1.38 -1.13,3.36 -2.01,4.76c-0.88,1.4 -1.84,2.72 -3.28,3.64c-1.45,0.91 -4.1,2.27 -5.41,1.86c-1.31,-0.42 -1.73,-2.96 -2.46,-4.37c-0.72,-1.4 -2.03,-2.52 -1.87,-4.05c0.15,-1.54 1.47,-3.99 2.82,-5.17c1.35,-1.18 3.99,-1.77 5.28,-1.9c1.29,-0.13 2.57,1.04 2.45,1.11m-2.29,-1.94c1.59,-0.01 1.86,2.96 2.88,3.94c1.03,0.99 2.94,0.45 3.25,1.95c0.31,1.51 -0.49,5.58 -1.38,7.08c-0.88,1.51 -2.61,1.65 -3.93,1.97c-1.32,0.33 -2.68,0.26 -3.97,-0.01c-1.3,-0.26 -2.96,-0.35 -3.8,-1.56c-0.84,-1.21 -1.55,-3.76 -1.24,-5.72c0.31,-1.95 1.76,-4.94 3.1,-6c1.33,-1.06 4.13,-0.3 4.92,-0.35c0.78,-0.04 -0.25,-0.02 -0.22,0.08" fill="none" stroke="#ffffff" stroke-width="4"/>
   </g>
   <g stroke-linecap="round" transform="translate(51.98193132252709 80.66717306988176) rotate(31.735202996048784 4.616670245875866 16.715934208556973)">
    <path d="m2.46,-1.71l2.99,3.28l4.97,-0.4l-0.44,31.59l-1.28,1.6l-8.15,-0.02l0.38,-4.76l-2.02,-26.55l2.33,-2.36" fill="#ffffff" stroke-width="0"/>
    <path d="m2.31,0m0,0c1.59,0.18 1.92,-0.21 4.62,0m-4.62,0c1.18,0.2 2.68,-0.22 4.62,0m0,0c3.46,1.13 4.04,-0.68 2.3,2.31m-2.3,-2.31c0.69,1.75 1.07,-1.27 2.3,2.31m0,0c-1.78,10.32 0.79,15.86 0,28.81m0,-28.81c0.36,9.35 -0.15,21.04 0,28.81m0,0c-0.42,1.65 -2.61,1.59 -2.3,2.31m2.3,-2.31c-1.69,0.97 -2.29,1.43 -2.3,2.31m0,0c-1.37,-0.08 -3.42,0.33 -4.62,0m4.62,0c-1.31,-0.02 -2.08,-0.24 -4.62,0m0,0c-0.96,1.99 -2.27,-0.31 -2.31,-2.31m2.31,2.31c-1.18,2.08 -3.6,-0.95 -2.31,-2.31m0,0c-0.73,-12.9 1.44,-20.54 0,-28.81m0,28.81c-0.41,-7.11 0.37,-13.1 0,-28.81m0,0c1.56,-1.78 1.69,-1.07 2.31,-2.31m-2.31,2.31c-1.89,-2.13 -0.63,-3.83 2.31,-2.31" fill="none" stroke="#ffffff" stroke-width="2"/>
   </g>
  </symbol>
 </defs>
 <g class="layer">
  <title>Layer 1</title>
  <use id="svg_25" transform="matrix(1.64335 0 0 1.64335 -2.24565 -1.52715)" x="-15.69" xlink:href="#svg_24" y="-16.73"/>
 </g>
</svg>