<svg version="1.1" xmlns="http://www.w3.org/2000/svg" viewBox="0 0 138.30096109824444 139.43001089805875" width="276.6019221964889" height="278.8600217961175">
  <!-- svg-source:excalidraw -->
  
  <defs>
    <style class="style-fonts">
      @font-face {
        font-family: "Virgil";
        src: url("https://excalidraw.com/Virgil.woff2");
      }
      @font-face {
        font-family: "Cascadia";
        src: url("https://excalidraw.com/Cascadia.woff2");
      }
    </style>
    
  </defs>
  <g stroke-linecap="round" transform="translate(10 10) rotate(0 59.15048054912222 59.71500544902938)"><path d="M0 0 L118.3 0 L118.3 119.43 L0 119.43" stroke="none" stroke-width="0" fill="#000"></path><path d="M0 0 C45.44 0, 90.87 0, 118.3 0 M0 0 C35.27 0, 70.55 0, 118.3 0 M118.3 0 C118.3 46.38, 118.3 92.77, 118.3 119.43 M118.3 0 C118.3 46.44, 118.3 92.87, 118.3 119.43 M118.3 119.43 C78.43 119.43, 38.56 119.43, 0 119.43 M118.3 119.43 C81.02 119.43, 43.74 119.43, 0 119.43 M0 119.43 C0 75.52, 0 31.6, 0 0 M0 119.43 C0 89.39, 0 59.35, 0 0" stroke="#000000" stroke-width="4" fill="none"></path></g><g stroke-linecap="round" transform="translate(34.62133401598476 47.7382449063316) rotate(0 35.142404636641004 21.121394915338897)"><path d="M13.5 1.2 L63.32 2.6 L71.05 1.61 L68.36 13.64 L68.11 33.44 L70.88 41.63 L60.9 43.44 L7.17 43.28 L3.16 41.46 L-2.23 32.33 L-0.38 7.16 L6.28 -3.03 L14.22 1.73" stroke="none" stroke-width="0" fill="#ffffff"></path><path d="M10.56 0 M10.56 0 C24.14 -0.84, 36.58 1.38, 59.72 0 M10.56 0 C26.12 -0.29, 40.6 -0.68, 59.72 0 M59.72 0 C69.49 -3.11, 66.6 6.22, 70.28 10.56 M59.72 0 C67.35 -3.97, 67.24 -0.94, 70.28 10.56 M70.28 10.56 C66.82 18.74, 69.95 17.47, 70.28 31.68 M70.28 10.56 C72.2 17.12, 69.73 19.14, 70.28 31.68 M70.28 31.68 C70 38.95, 64.32 43.22, 59.72 42.24 M70.28 31.68 C70.32 40.72, 64.85 41.34, 59.72 42.24 M59.72 42.24 C44.05 41.33, 37.27 45.75, 10.56 42.24 M59.72 42.24 C45.72 41.74, 29.83 42.08, 10.56 42.24 M10.56 42.24 C1 44.75, -0.86 39.6, 0 31.68 M10.56 42.24 C4.29 40.03, 3.82 37.52, 0 31.68 M0 31.68 C-2.53 27.16, 2.26 24.92, 0 10.56 M0 31.68 C-0.3 24, -0.77 19.37, 0 10.56 M0 10.56 C2.84 6.61, 4.98 -1.12, 10.56 0 M0 10.56 C2.34 2.97, -0.24 3.62, 10.56 0" stroke="#ffffff" stroke-width="4" fill="none"></path></g><g stroke-linecap="round"><g transform="translate(60.14675898112546 55.827289767525144) rotate(0 11.647195648800334 12.910642331526105)" fill-rule="evenodd"><path d="M-1.07 0.27 L1.5 26.67 L23.27 13.86 L2.69 1.1" stroke="none" stroke-width="0" fill="#000" fill-rule="evenodd"></path><path d="M1.62 1.01 C0.52 10.02, -1.69 19.36, 0.44 25.91 M0.3 0.09 C-0.84 7.02, 0.56 12.21, -0.21 24.45 M0.61 25.32 C6.28 23.71, 12.42 20.08, 21.75 14.84 M0.85 25.11 C7.74 20.83, 15.97 17, 23.75 14.18 M21.59 13.79 C20.26 12.81, 15.35 10.87, 0.11 -0.09 M23.07 14.93 C16.88 10.47, 9.88 6.57, 0.6 1.69 M1.25 1.66 C0.68 1.3, 0.78 0.83, 0.19 -0.03 M1.1 1.63 C0.77 1.31, 0.53 0.79, 0.09 0.08" stroke="#000000" stroke-width="4" fill="none"></path></g></g><mask></mask></svg>